<?xml version="1.0" encoding="UTF-8" standalone="no"?>
<svg
   xmlns:dc="http://purl.org/dc/elements/1.1/"
   xmlns:cc="http://creativecommons.org/ns#"
   xmlns:rdf="http://www.w3.org/1999/02/22-rdf-syntax-ns#"
   xmlns:svg="http://www.w3.org/2000/svg"
   xmlns="http://www.w3.org/2000/svg"
   xmlns:xlink="http://www.w3.org/1999/xlink"
   xmlns:sodipodi="http://sodipodi.sourceforge.net/DTD/sodipodi-0.dtd"
   xmlns:inkscape="http://www.inkscape.org/namespaces/inkscape"
   width="443mm"
   height="624mm"
   viewBox="0 0 443 624"
   version="1.1"
   id="svg8"
   inkscape:version="1.0 (4035a4fb49, 2020-05-01)"
   sodipodi:docname="knug.svg">
  <defs
     id="defs2">
    <pattern
       inkscape:collect="always"
       xlink:href="#Polkadots-med"
       id="pattern3461"
       patternTransform="matrix(10,0,0,10,-4.2763123,-34.210499)" />
    <pattern
       inkscape:collect="always"
       xlink:href="#Polkadots-med"
       id="pattern3459"
       patternTransform="matrix(10,0,0,10,-4.2763123,-34.210499)" />
    <pattern
       inkscape:stockid="Polka dots, medium"
       id="Polkadots-med"
       patternTransform="translate(0,0) scale(10,10)"
       height="10"
       width="10"
       patternUnits="userSpaceOnUse"
       inkscape:collect="always">
      <circle
         id="circle2460"
         r="0.15"
         cy="0.810"
         cx="2.567"
         style="fill:black;stroke:none" />
      <circle
         id="circle2462"
         r="0.15"
         cy="2.33"
         cx="3.048"
         style="fill:black;stroke:none" />
      <circle
         id="circle2464"
         r="0.15"
         cy="2.415"
         cx="4.418"
         style="fill:black;stroke:none" />
      <circle
         id="circle2466"
         r="0.15"
         cy="3.029"
         cx="1.844"
         style="fill:black;stroke:none" />
      <circle
         id="circle2468"
         r="0.15"
         cy="1.363"
         cx="6.08"
         style="fill:black;stroke:none" />
      <circle
         id="circle2470"
         r="0.15"
         cy="4.413"
         cx="5.819"
         style="fill:black;stroke:none" />
      <circle
         id="circle2472"
         r="0.15"
         cy="4.048"
         cx="4.305"
         style="fill:black;stroke:none" />
      <circle
         id="circle2474"
         r="0.15"
         cy="3.045"
         cx="5.541"
         style="fill:black;stroke:none" />
      <circle
         id="circle2476"
         r="0.15"
         cy="5.527"
         cx="4.785"
         style="fill:black;stroke:none" />
      <circle
         id="circle2478"
         r="0.15"
         cy="5.184"
         cx="2.667"
         style="fill:black;stroke:none" />
      <circle
         id="circle2480"
         r="0.15"
         cy="1.448"
         cx="7.965"
         style="fill:black;stroke:none" />
      <circle
         id="circle2482"
         r="0.15"
         cy="5.049"
         cx="7.047"
         style="fill:black;stroke:none" />
      <circle
         id="circle2484"
         r="0.15"
         cy="0.895"
         cx="4.340"
         style="fill:black;stroke:none" />
      <circle
         id="circle2486"
         r="0.15"
         cy="0.340"
         cx="7.125"
         style="fill:black;stroke:none" />
      <circle
         id="circle2488"
         r="0.15"
         cy="1.049"
         cx="9.553"
         style="fill:black;stroke:none" />
      <circle
         id="circle2490"
         r="0.15"
         cy="2.689"
         cx="7.006"
         style="fill:black;stroke:none" />
      <circle
         id="circle2492"
         r="0.15"
         cy="2.689"
         cx="8.909"
         style="fill:black;stroke:none" />
      <circle
         id="circle2494"
         r="0.15"
         cy="4.407"
         cx="9.315"
         style="fill:black;stroke:none" />
      <circle
         id="circle2496"
         r="0.15"
         cy="3.870"
         cx="7.820"
         style="fill:black;stroke:none" />
      <circle
         id="circle2498"
         r="0.15"
         cy="5.948"
         cx="8.270"
         style="fill:black;stroke:none" />
      <circle
         id="circle2500"
         r="0.15"
         cy="7.428"
         cx="7.973"
         style="fill:black;stroke:none" />
      <circle
         id="circle2502"
         r="0.15"
         cy="8.072"
         cx="9.342"
         style="fill:black;stroke:none" />
      <circle
         id="circle2504"
         r="0.15"
         cy="9.315"
         cx="8.206"
         style="fill:black;stroke:none" />
      <circle
         id="circle2506"
         r="0.15"
         cy="9.475"
         cx="9.682"
         style="fill:black;stroke:none" />
      <circle
         id="circle2508"
         r="0.15"
         cy="6.186"
         cx="9.688"
         style="fill:black;stroke:none" />
      <circle
         id="circle2510"
         r="0.15"
         cy="6.296"
         cx="3.379"
         style="fill:black;stroke:none" />
      <circle
         id="circle2512"
         r="0.15"
         cy="8.204"
         cx="2.871"
         style="fill:black;stroke:none" />
      <circle
         id="circle2514"
         r="0.15"
         cy="8.719"
         cx="4.59"
         style="fill:black;stroke:none" />
      <circle
         id="circle2516"
         r="0.15"
         cy="9.671"
         cx="3.181"
         style="fill:black;stroke:none" />
      <circle
         id="circle2518"
         r="0.15"
         cy="7.315"
         cx="5.734"
         style="fill:black;stroke:none" />
      <circle
         id="circle2520"
         r="0.15"
         cy="6.513"
         cx="6.707"
         style="fill:black;stroke:none" />
      <circle
         id="circle2522"
         r="0.15"
         cy="9.670"
         cx="5.730"
         style="fill:black;stroke:none" />
      <circle
         id="circle2524"
         r="0.15"
         cy="8.373"
         cx="6.535"
         style="fill:black;stroke:none" />
      <circle
         id="circle2526"
         r="0.15"
         cy="7.154"
         cx="4.37"
         style="fill:black;stroke:none" />
      <circle
         id="circle2528"
         r="0.15"
         cy="7.25"
         cx="0.622"
         style="fill:black;stroke:none" />
      <circle
         id="circle2530"
         r="0.15"
         cy="5.679"
         cx="0.831"
         style="fill:black;stroke:none" />
      <circle
         id="circle2532"
         r="0.15"
         cy="8.519"
         cx="1.257"
         style="fill:black;stroke:none" />
      <circle
         id="circle2534"
         r="0.15"
         cy="6.877"
         cx="1.989"
         style="fill:black;stroke:none" />
      <circle
         id="circle2536"
         r="0.15"
         cy="3.181"
         cx="0.374"
         style="fill:black;stroke:none" />
      <circle
         id="circle2538"
         r="0.15"
         cy="1.664"
         cx="1.166"
         style="fill:black;stroke:none" />
      <circle
         id="circle2540"
         r="0.15"
         cy="0.093"
         cx="1.151"
         style="fill:black;stroke:none" />
      <circle
         id="circle2542"
         r="0.15"
         cy="10.093"
         cx="1.151"
         style="fill:black;stroke:none" />
      <circle
         id="circle2544"
         r="0.15"
         cy="4.451"
         cx="1.302"
         style="fill:black;stroke:none" />
      <circle
         id="circle2546"
         r="0.15"
         cy="3.763"
         cx="3.047"
         style="fill:black;stroke:none" />
    </pattern>
    <clipPath
       id="clipEmfPath1"
       clipPathUnits="userSpaceOnUse">
      <path
         id="path833"
         d="M 0,0 H 264.09071 V 373.01291 H 0 Z" />
    </clipPath>
    <pattern
       y="0"
       x="0"
       height="6"
       width="6"
       patternUnits="userSpaceOnUse"
       id="EMFhbasepattern" />
  </defs>
  <sodipodi:namedview
     id="base"
     pagecolor="#ffffff"
     bordercolor="#666666"
     borderopacity="1.0"
     inkscape:pageopacity="0.0"
     inkscape:pageshadow="2"
     inkscape:zoom="0.35000001"
     inkscape:cx="752.33247"
     inkscape:cy="1351.4341"
     inkscape:document-units="mm"
     inkscape:current-layer="layer1"
     inkscape:document-rotation="0"
     showgrid="false"
     inkscape:window-width="1920"
     inkscape:window-height="1000"
     inkscape:window-x="-11"
     inkscape:window-y="35"
     inkscape:window-maximized="1" />
  <metadata
     id="metadata5">
    <rdf:RDF>
      <cc:Work
         rdf:about="">
        <dc:format>image/svg+xml</dc:format>
        <dc:type
           rdf:resource="http://purl.org/dc/dcmitype/StillImage" />
        <dc:title />
      </cc:Work>
    </rdf:RDF>
  </metadata>
  <g
     inkscape:label="Layer 1"
     inkscape:groupmode="layer"
     id="layer1">
    <path
       style="fill:#d00000;fill-opacity:1;stroke:#000000;stroke-width:0.933921px;stroke-linecap:butt;stroke-linejoin:miter;stroke-opacity:1"
       d="m 150.51612,271.3328 1.30526,238.82418 132.26577,-1.0228 0.43508,-237.80138 z"
       id="path903" />
    <path
       style="fill:#302e65;fill-opacity:1;stroke:#000000;stroke-width:0.264583px;stroke-linecap:butt;stroke-linejoin:miter;stroke-opacity:1"
       d="m 130.42752,288.65108 c 0,0 -65.748296,30.4687 -64.679218,77.50815 1.069078,47.03943 0.534537,26.72694 0.534537,26.72694 l 34.105361,-0.80181 c 0,0 -1.216792,-14.42922 0.18342,-25.18262 1.4002,-10.75339 15.7263,-38.27094 33.06313,-40.03112 19.9905,-2.02961 -3.20723,-38.21954 -3.20723,-38.21954 z"
       id="path990"
       sodipodi:nodetypes="cscczsc" />
    <text
       id="text874"
       y="60.379772"
       x="26.895372"
       style="font-style:normal;font-weight:normal;font-size:27.5656px;line-height:1.25;font-family:sans-serif;fill:#000000;fill-opacity:1;stroke:none;stroke-width:0.861423"
       xml:space="preserve"><tspan
         id="tspan884"
         style="font-style:normal;font-variant:normal;font-weight:normal;font-stretch:normal;font-size:27.5656px;font-family:Cabin;-inkscape-font-specification:Cabin;stroke-width:0.861423"
         y="60.379772"
         x="26.895372"
         sodipodi:role="line" /></text>
    <g
       id="g1031"
       transform="translate(-4.5435818,-32.473247)">
      <g
         id="g1048">
        <path
           sodipodi:nodetypes="czscc"
           id="path1010"
           d="m 331.85012,266.55639 c 0,0 75.75145,4.06506 75.88713,-1.58278 0.13568,-5.64784 0.18804,-4.84441 -0.0182,-10.25526 -0.29438,-7.72315 -76.03756,-8.83039 -76.03756,-8.83039 z"
           style="fill:#bcbcbc;fill-opacity:1;stroke:#000000;stroke-width:0.264583px;stroke-linecap:butt;stroke-linejoin:miter;stroke-opacity:1" />
        <path
           style="fill:#bcbcbc;fill-opacity:1;stroke:none;stroke-width:0.264583px;stroke-linecap:butt;stroke-linejoin:miter;stroke-opacity:1"
           d="m 332.61903,239.63689 -58.96427,-2.64583 -1.32292,32.69495 59.34226,3.59076 z"
           id="path1014" />
        <path
           id="path1024"
           d="m 331.68148,245.88796 -58.66567,-3.47451"
           style="fill:none;stroke:#dddddd;stroke-width:1.32292;stroke-linecap:butt;stroke-linejoin:miter;stroke-miterlimit:4;stroke-dasharray:none;stroke-opacity:1" />
        <path
           style="fill:none;stroke:#dddddd;stroke-width:1.32292;stroke-linecap:butt;stroke-linejoin:miter;stroke-miterlimit:4;stroke-dasharray:none;stroke-opacity:1"
           d="m 331.85012,266.55639 -58.66567,-3.47451"
           id="path1026" />
        <path
           style="fill:none;stroke:#7a7a7a;stroke-width:9.26042;stroke-linecap:round;stroke-linejoin:miter;stroke-miterlimit:4;stroke-dasharray:none;stroke-opacity:1"
           d="m 330.84543,293.33638 2.64583,-69.54762"
           id="path1012" />
      </g>
      <g
         id="g1037" />
    </g>
    <path
       sodipodi:nodetypes="cscczsc"
       id="path994"
       d="m 299.00697,332.91512 c 0,0 70.04027,-18.58874 77.15575,-65.09921 7.11547,-46.51043 4.11467,-26.41371 4.11467,-26.41371 l -33.72646,-5.13271 c 0,0 -1.30727,14.4213 -4.55356,24.76819 -3.24623,10.34688 -22.13305,34.95868 -39.51215,33.6816 -20.03923,-1.47254 -3.47825,38.19584 -3.47825,38.19584 z"
       style="fill:#302e65;fill-opacity:1;stroke:#000000;stroke-width:0.264583px;stroke-linecap:butt;stroke-linejoin:miter;stroke-opacity:1" />
    <path
       sodipodi:nodetypes="csscsccc"
       id="path3234"
       d="m 118.13313,275.82213 c 0,0 38.00043,74.73819 28.91327,116.43224 -9.08716,41.69404 -4.68877,85.48782 -8.06625,129.99026 -1.58225,20.848 50.24667,-11.22532 50.24667,-11.22532 0,0 2.13816,-24.05425 -5.87993,-67.35191 -8.01809,-43.29766 2.6727,-112.78775 2.6727,-112.78775 l -6.41447,-64.67922 c 0,0 -37.95227,-17.10523 -61.47199,9.6217 z"
       style="fill:#fafafb;fill-opacity:1;stroke:#000000;stroke-width:2.11667;stroke-linecap:butt;stroke-linejoin:miter;stroke-miterlimit:4;stroke-dasharray:none;stroke-opacity:1" />
    <path
       style="fill:url(#pattern3459);fill-opacity:1;stroke:#000000;stroke-width:2.11667;stroke-linecap:butt;stroke-linejoin:miter;stroke-miterlimit:4;stroke-dasharray:none;stroke-opacity:1"
       d="m 118.13313,275.82213 c 0,0 38.00043,74.73819 28.91327,116.43224 -9.08716,41.69404 -4.68877,85.48782 -8.06625,129.99026 -1.58225,20.848 50.24667,-11.22532 50.24667,-11.22532 0,0 2.13816,-24.05425 -5.87993,-67.35191 -8.01809,-43.29766 2.6727,-112.78775 2.6727,-112.78775 l -6.41447,-64.67922 c 0,0 -37.95227,-17.10523 -61.47199,9.6217 z"
       id="path998"
       sodipodi:nodetypes="csscsccc" />
    <path
       sodipodi:nodetypes="csscsccc"
       id="path1008"
       d="m 322.31924,272.04237 c 0,0 -38.00043,74.73819 -28.91327,116.43224 9.08716,41.69404 4.68877,85.48782 8.06625,129.99026 1.58225,20.848 -50.24667,-11.22532 -50.24667,-11.22532 0,0 -2.13816,-24.05425 5.87993,-67.35191 8.01809,-43.29766 -2.6727,-112.78775 -2.6727,-112.78775 l 6.41447,-64.67922 c 0,0 37.95227,-17.10523 61.47199,9.6217 z"
       style="fill:#fafafb;fill-opacity:1;stroke:#000000;stroke-width:2.11667;stroke-linecap:butt;stroke-linejoin:miter;stroke-miterlimit:4;stroke-dasharray:none;stroke-opacity:1" />
    <path
       style="fill:url(#pattern3461);fill-opacity:1;stroke:#000000;stroke-width:2.11667;stroke-linecap:butt;stroke-linejoin:miter;stroke-miterlimit:4;stroke-dasharray:none;stroke-opacity:1"
       d="m 322.31924,272.04237 c 0,0 -38.00043,74.73819 -28.91327,116.43224 9.08716,41.69404 4.68877,85.48782 8.06625,129.99026 1.58225,20.848 -50.24667,-11.22532 -50.24667,-11.22532 0,0 -2.13816,-24.05425 5.87993,-67.35191 8.01809,-43.29766 -2.6727,-112.78775 -2.6727,-112.78775 l 6.41447,-64.67922 c 0,0 37.95227,-17.10523 61.47199,9.6217 z"
       id="path3236"
       sodipodi:nodetypes="csscsccc" />
    <g
       id="g986"
       transform="translate(-4.2763123,-34.210499)">
      <circle
         style="fill:#f8e89b;fill-opacity:1;stroke:#303030;stroke-width:4.26015;stroke-linecap:round;stroke-miterlimit:4;stroke-dasharray:none;stroke-opacity:1;paint-order:stroke fill markers"
         id="path883-1"
         cx="223.35309"
         cy="261.58655"
         r="66.343704" />
      <ellipse
         ry="15.978811"
         rx="13.952684"
         cy="240.85179"
         cx="198.77075"
         id="path900"
         style="fill:#000000;fill-opacity:1;stroke:#f8e798;stroke-width:5.54367;stroke-linecap:round;stroke-miterlimit:4;stroke-dasharray:none;stroke-opacity:1;paint-order:stroke fill markers" />
      <ellipse
         style="fill:#000000;fill-opacity:1;stroke:#f8e798;stroke-width:5.58847;stroke-linecap:round;stroke-miterlimit:4;stroke-dasharray:none;stroke-opacity:1;paint-order:stroke fill markers"
         id="path900-2"
         cx="248.58803"
         cy="240.76167"
         rx="13.930296"
         ry="16.264074" />
      <path
         sodipodi:nodetypes="cssc"
         id="path873"
         d="m 194.62257,274.20937 c 0,0 12.93103,16.49568 22.44951,25.08451 2.84373,2.56598 6.83925,3.30412 9.84485,0.61531 5.0722,-4.53761 23.96589,-23.31324 23.96589,-27.3127"
         style="fill:none;stroke:#000000;stroke-width:3.44568;stroke-linecap:butt;stroke-linejoin:miter;stroke-miterlimit:4;stroke-dasharray:none;stroke-opacity:1" />
    </g>
    <g
       id="g1152"
       transform="translate(-4.2763123,-25.895023)">
      <g
         id="g3457"
         transform="matrix(0.98094342,0,0,1,2.8740007,-5.9067913)">
        <g
           id="g3435">
          <rect
             y="184.72356"
             x="146.03526"
             height="47.259052"
             width="159.29263"
             id="rect876"
             style="fill:#e1b035;fill-opacity:1;stroke:none;stroke-width:1.03189;paint-order:stroke fill markers" />
          <path
             sodipodi:nodetypes="cccccccccc"
             id="path880"
             d="m 146.03525,184.72356 -8.24951,-45.40924 38.47298,43.94239 24.43089,-49.21986 25.54256,49.52792 26.50419,-48.93824 21.70908,48.82934 38.8097,-44.35937 -7.92726,45.62706 z"
             style="fill:#e1b035;fill-opacity:1;stroke:none;stroke-width:0.262431px;stroke-linecap:butt;stroke-linejoin:miter;stroke-opacity:1" />
        </g>
        <rect
           y="222.92979"
           x="146.03526"
           height="9.0528193"
           width="159.38446"
           id="rect893"
           style="fill:#343434;fill-opacity:1;stroke:none;stroke-width:1.12488;stroke-opacity:1;paint-order:stroke fill markers" />
        <rect
           y="218.4034"
           x="146.03526"
           height="9.0528193"
           width="159.38446"
           id="rect895"
           style="fill:#de1515;fill-opacity:1;stroke:none;stroke-width:1.12488;stroke-opacity:1;paint-order:stroke fill markers" />
        <g
           transform="matrix(1,0,0,1.12905,-0.1755572,-28.276299)"
           id="g1101">
          <path
             sodipodi:nodetypes="cccccc"
             id="path897"
             d="M 153.17907,214.46856 149,208.73957 l 5.14347,-6.91669 4.70145,7.05643 -4.05853,5.93858 z"
             style="fill:#343434;fill-opacity:1;stroke:none;stroke-width:0.296717px;stroke-linecap:butt;stroke-linejoin:miter;stroke-opacity:1" />
          <path
             style="fill:#343434;fill-opacity:1;stroke:none;stroke-width:0.296717px;stroke-linecap:butt;stroke-linejoin:miter;stroke-opacity:1"
             d="m 165.20688,214.46856 -4.17908,-5.72899 5.14348,-6.91669 4.70145,7.05643 -4.05853,5.93858 z"
             id="path918"
             sodipodi:nodetypes="cccccc" />
          <path
             sodipodi:nodetypes="cccccc"
             id="path920"
             d="m 177.23469,214.46856 -4.17908,-5.72899 5.14348,-6.91669 4.70145,7.05643 -4.05853,5.93858 z"
             style="fill:#343434;fill-opacity:1;stroke:none;stroke-width:0.296717px;stroke-linecap:butt;stroke-linejoin:miter;stroke-opacity:1" />
          <path
             style="fill:#343434;fill-opacity:1;stroke:none;stroke-width:0.296717px;stroke-linecap:butt;stroke-linejoin:miter;stroke-opacity:1"
             d="m 189.26249,214.46856 -4.17907,-5.72899 5.14347,-6.91669 4.70146,7.05643 -4.05853,5.93858 z"
             id="path922"
             sodipodi:nodetypes="cccccc" />
          <path
             sodipodi:nodetypes="cccccc"
             id="path924"
             d="m 201.2903,214.46856 -4.17907,-5.72899 5.14347,-6.91669 4.70146,7.05643 -4.05853,5.93858 z"
             style="fill:#343434;fill-opacity:1;stroke:none;stroke-width:0.296717px;stroke-linecap:butt;stroke-linejoin:miter;stroke-opacity:1" />
          <path
             style="fill:#343434;fill-opacity:1;stroke:none;stroke-width:0.296717px;stroke-linecap:butt;stroke-linejoin:miter;stroke-opacity:1"
             d="m 213.31811,214.46856 -4.17907,-5.72899 5.14347,-6.91669 4.70145,7.05643 -4.05853,5.93858 z"
             id="path926"
             sodipodi:nodetypes="cccccc" />
          <path
             sodipodi:nodetypes="cccccc"
             id="path928"
             d="m 225.34592,214.46856 -4.17908,-5.72899 5.14348,-6.91669 4.70145,7.05643 -4.05853,5.93858 z"
             style="fill:#343434;fill-opacity:1;stroke:none;stroke-width:0.296717px;stroke-linecap:butt;stroke-linejoin:miter;stroke-opacity:1" />
          <path
             style="fill:#343434;fill-opacity:1;stroke:none;stroke-width:0.296717px;stroke-linecap:butt;stroke-linejoin:miter;stroke-opacity:1"
             d="m 249.40153,214.46856 -4.17907,-5.72899 5.14347,-6.91669 4.70146,7.05643 -4.05853,5.93858 z"
             id="path930"
             sodipodi:nodetypes="cccccc" />
          <path
             sodipodi:nodetypes="cccccc"
             id="path932"
             d="m 237.37373,214.46856 -4.17908,-5.72899 5.14348,-6.91669 4.70145,7.05643 -4.05853,5.93858 z"
             style="fill:#343434;fill-opacity:1;stroke:none;stroke-width:0.296717px;stroke-linecap:butt;stroke-linejoin:miter;stroke-opacity:1" />
          <path
             sodipodi:nodetypes="cccccc"
             id="path934"
             d="m 261.42934,214.46856 -4.17907,-5.72899 5.14347,-6.91669 4.70146,7.05643 -4.05853,5.93858 z"
             style="fill:#343434;fill-opacity:1;stroke:none;stroke-width:0.296717px;stroke-linecap:butt;stroke-linejoin:miter;stroke-opacity:1" />
          <path
             style="fill:#343434;fill-opacity:1;stroke:none;stroke-width:0.296717px;stroke-linecap:butt;stroke-linejoin:miter;stroke-opacity:1"
             d="m 273.45715,214.46856 -4.17907,-5.72899 5.14347,-6.91669 4.70145,7.05643 -4.05853,5.93858 z"
             id="path936"
             sodipodi:nodetypes="cccccc" />
          <path
             sodipodi:nodetypes="cccccc"
             id="path938"
             d="m 285.48496,214.46856 -4.17908,-5.72899 5.14348,-6.91669 4.70145,7.05643 -4.05853,5.93858 z"
             style="fill:#343434;fill-opacity:1;stroke:none;stroke-width:0.296717px;stroke-linecap:butt;stroke-linejoin:miter;stroke-opacity:1" />
          <path
             style="fill:#343434;fill-opacity:1;stroke:none;stroke-width:0.296717px;stroke-linecap:butt;stroke-linejoin:miter;stroke-opacity:1"
             d="m 297.51277,214.46856 -4.17908,-5.72899 5.14348,-6.91669 4.70145,7.05643 -4.05853,5.93858 z"
             id="path940"
             sodipodi:nodetypes="cccccc" />
        </g>
        <rect
           style="fill:#343434;fill-opacity:1;stroke:none;stroke-width:1.12488;stroke-opacity:1;paint-order:stroke fill markers"
           id="rect882"
           width="159.38446"
           height="9.0528479"
           x="146.03526"
           y="213.87695" />
      </g>
    </g>
    <path
       sodipodi:nodetypes="ccscsccc"
       id="path1086"
       d="m 380.27739,241.4022 14.89059,34.41052 c 0,0 -13.38681,-16.10599 -25.00243,-7.00733 -3.13501,2.45568 -7.65776,17.61309 -7.65776,17.61309 0,0 -1.52739,-31.4505 -25.16395,-16.37612 -3.93146,2.50732 -5.59607,2.56893 -5.59607,2.56893 l 14.65318,-30.09585 z"
       style="fill:#f1c600;fill-opacity:1;stroke:#000000;stroke-width:0.234877px;stroke-linecap:butt;stroke-linejoin:miter;stroke-opacity:1" />
    <ellipse
       ry="24.588795"
       rx="24.054256"
       cy="158.03851"
       cx="395.06058"
       id="ellipse996"
       style="fill:#f8e89b;fill-opacity:1;stroke:#030303;stroke-width:3.96875;stroke-miterlimit:4;stroke-dasharray:none;stroke-opacity:1;paint-order:stroke fill markers"
       transform="rotate(10)" />
    <text
       xml:space="preserve"
       style="font-style:normal;font-weight:normal;font-size:56.4444px;line-height:1.25;font-family:sans-serif;fill:#bf2c26;fill-opacity:1;stroke:none;stroke-width:0.264583"
       x="23.465994"
       y="82.548691"
       id="text1076"><tspan
         sodipodi:role="line"
         id="tspan1074"
         x="23.465994"
         y="82.548691"
         style="font-style:normal;font-variant:normal;font-weight:normal;font-stretch:normal;font-size:56.4444px;font-family:TechnicLite;-inkscape-font-specification:TechnicLite;fill:#bf2c26;fill-opacity:1;stroke-width:0.264583">K</tspan></text>
    <path
       style="fill:#f1c600;fill-opacity:1;stroke:#000000;stroke-width:0.229542px;stroke-linecap:butt;stroke-linejoin:miter;stroke-opacity:1"
       d="M 69.989039,395.97608 52.203211,363.81012 c 0,0 14.605528,14.55662 25.125024,4.84255 2.83916,-2.62178 5.851034,-17.65187 5.851034,-17.65187 0,0 4.430407,30.33816 26.157561,13.90279 3.61387,-2.73369 7.05566,-5.93602 7.05566,-5.93602 l -16.00429,33.11679 z"
       id="path1084"
       sodipodi:nodetypes="ccscsccc" />
    <ellipse
       style="fill:#f8e89b;fill-opacity:1;stroke:#030303;stroke-width:3.96875;stroke-miterlimit:4;stroke-dasharray:none;stroke-opacity:1;paint-order:stroke fill markers"
       id="path992"
       cx="84.189896"
       cy="408.65506"
       rx="24.054256"
       ry="24.588795" />
    <g
       style="fill:#bf2c26;fill-opacity:1;stroke-width:0.548697;stroke-miterlimit:4;stroke-dasharray:none"
       transform="matrix(2.733615,0,0,2.8024233,51.735424,-8.2176683)"
       inkscape:label="Layer 1"
       id="layer1-4">
      <path
         sodipodi:nodetypes="ccsc"
         id="path832"
         d="M 26.860588,44.099473 C 23.17669,33.73823 10.816157,31.905338 7.9929525,24.588796 3.4688555,12.027834 24.698589,3.5423745 27.127856,16.971615 c 4.225973,23.361621 0.959785,14.101824 -0.267268,27.127858 z"
         style="fill:#bf2c26;fill-opacity:1;stroke:none;stroke-width:0.548697;stroke-linecap:butt;stroke-linejoin:miter;stroke-miterlimit:4;stroke-dasharray:none;stroke-opacity:1" />
      <path
         style="fill:#bf2c26;fill-opacity:1;stroke:none;stroke-width:0.548697;stroke-linecap:butt;stroke-linejoin:miter;stroke-miterlimit:4;stroke-dasharray:none;stroke-opacity:1"
         d="M 26.860588,44.099473 C 30.544486,33.73823 42.905019,31.905338 45.728223,24.588796 50.25232,12.027834 29.022587,3.5423745 26.59332,16.971615 22.367347,40.333236 25.633535,31.073439 26.860588,44.099473 Z"
         id="path834"
         sodipodi:nodetypes="ccsc" />
    </g>
    <text
       transform="scale(-1)"
       id="text969"
       y="-549.32281"
       x="-423.62131"
       style="font-style:normal;font-weight:normal;font-size:56.4444px;line-height:1.25;font-family:sans-serif;fill:#bf2c26;fill-opacity:1;stroke:none;stroke-width:0.264583"
       xml:space="preserve"><tspan
         style="font-style:normal;font-variant:normal;font-weight:normal;font-stretch:normal;font-size:56.4444px;font-family:TechnicLite;-inkscape-font-specification:TechnicLite;fill:#bf2c26;fill-opacity:1;stroke-width:0.264583"
         y="-549.32281"
         x="-423.62131"
         id="tspan967"
         sodipodi:role="line">K</tspan></text>
    <g
       id="layer1-4-4"
       inkscape:label="Layer 1"
       transform="matrix(2.7336149,0,0,-2.8024233,250.87706,639.20805)"
       style="fill:#bf2c26;fill-opacity:1;stroke-width:0.548697;stroke-miterlimit:4;stroke-dasharray:none">
      <path
         style="fill:#bf2c26;fill-opacity:1;stroke:none;stroke-width:0.548697;stroke-linecap:butt;stroke-linejoin:miter;stroke-miterlimit:4;stroke-dasharray:none;stroke-opacity:1"
         d="M 26.860588,44.099473 C 23.17669,33.73823 10.816157,31.905338 7.9929525,24.588796 3.4688555,12.027834 24.698589,3.5423745 27.127856,16.971615 c 4.225973,23.361621 0.959785,14.101824 -0.267268,27.127858 z"
         id="path832-7"
         sodipodi:nodetypes="ccsc" />
      <path
         sodipodi:nodetypes="ccsc"
         id="path834-8"
         d="M 26.860588,44.099473 C 30.544486,33.73823 42.905019,31.905338 45.728223,24.588796 50.25232,12.027834 29.022587,3.5423745 26.59332,16.971615 22.367347,40.333236 25.633535,31.073439 26.860588,44.099473 Z"
         style="fill:#bf2c26;fill-opacity:1;stroke:none;stroke-width:0.548697;stroke-linecap:butt;stroke-linejoin:miter;stroke-miterlimit:4;stroke-dasharray:none;stroke-opacity:1" />
    </g>
    <g
       style="fill:#bf2c26;fill-opacity:1;stroke-width:0.548697;stroke-miterlimit:4;stroke-dasharray:none"
       transform="matrix(-1.3668075,0,0,1.4012117,79.046588,81.428706)"
       inkscape:label="Layer 1"
       id="g1013">
      <path
         sodipodi:nodetypes="ccsc"
         id="path1009"
         d="M 26.860588,44.099473 C 23.17669,33.73823 10.816157,31.905338 7.9929525,24.588796 3.4688555,12.027834 24.698589,3.5423745 27.127856,16.971615 c 4.225973,23.361621 0.959785,14.101824 -0.267268,27.127858 z"
         style="fill:#bf2c26;fill-opacity:1;stroke:none;stroke-width:0.548697;stroke-linecap:butt;stroke-linejoin:miter;stroke-miterlimit:4;stroke-dasharray:none;stroke-opacity:1" />
      <path
         style="fill:#bf2c26;fill-opacity:1;stroke:none;stroke-width:0.548697;stroke-linecap:butt;stroke-linejoin:miter;stroke-miterlimit:4;stroke-dasharray:none;stroke-opacity:1"
         d="M 26.860588,44.099473 C 30.544486,33.73823 42.905019,31.905338 45.728223,24.588796 50.25232,12.027834 29.022587,3.5423745 26.59332,16.971615 22.367347,40.333236 25.633535,31.073439 26.860588,44.099473 Z"
         id="path1011"
         sodipodi:nodetypes="ccsc" />
    </g>
    <g
       id="g1032"
       inkscape:label="Layer 1"
       transform="matrix(1.3668075,0,0,-1.4012117,365.4534,552.05938)"
       style="fill:#bf2c26;fill-opacity:1;stroke-width:0.548697;stroke-miterlimit:4;stroke-dasharray:none">
      <path
         style="fill:#bf2c26;fill-opacity:1;stroke:none;stroke-width:0.548697;stroke-linecap:butt;stroke-linejoin:miter;stroke-miterlimit:4;stroke-dasharray:none;stroke-opacity:1"
         d="M 26.860588,44.099473 C 23.17669,33.73823 10.816157,31.905338 7.9929525,24.588796 3.4688555,12.027834 24.698589,3.5423745 27.127856,16.971615 c 4.225973,23.361621 0.959785,14.101824 -0.267268,27.127858 z"
         id="path1027"
         sodipodi:nodetypes="ccsc" />
      <path
         sodipodi:nodetypes="ccsc"
         id="path1029"
         d="M 26.860588,44.099473 C 30.544486,33.73823 42.905019,31.905338 45.728223,24.588796 50.25232,12.027834 29.022587,3.5423745 26.59332,16.971615 22.367347,40.333236 25.633535,31.073439 26.860588,44.099473 Z"
         style="fill:#bf2c26;fill-opacity:1;stroke:none;stroke-width:0.548697;stroke-linecap:butt;stroke-linejoin:miter;stroke-miterlimit:4;stroke-dasharray:none;stroke-opacity:1" />
    </g>
  </g>
</svg>
