<?xml version="1.0" encoding="UTF-8" standalone="no"?>
<svg
   xmlns:dc="http://purl.org/dc/elements/1.1/"
   xmlns:cc="http://creativecommons.org/ns#"
   xmlns:rdf="http://www.w3.org/1999/02/22-rdf-syntax-ns#"
   xmlns:svg="http://www.w3.org/2000/svg"
   xmlns="http://www.w3.org/2000/svg"
   xmlns:sodipodi="http://sodipodi.sourceforge.net/DTD/sodipodi-0.dtd"
   xmlns:inkscape="http://www.inkscape.org/namespaces/inkscape"
   width="443mm"
   height="624mm"
   viewBox="0 0 443 624"
   version="1.1"
   id="svg8"
   inkscape:version="1.0 (4035a4fb49, 2020-05-01)"
   sodipodi:docname="drottning.svg">
  <defs
     id="defs2">
    <inkscape:perspective
       sodipodi:type="inkscape:persp3d"
       inkscape:vp_x="0 : 312 : 1"
       inkscape:vp_y="0 : 1000 : 0"
       inkscape:vp_z="443 : 312 : 1"
       inkscape:persp3d-origin="221.5 : 208 : 1"
       id="perspective1087" />
    <clipPath
       id="clipEmfPath1"
       clipPathUnits="userSpaceOnUse">
      <path
         id="path833"
         d="M 0,0 H 264.09071 V 373.01291 H 0 Z" />
    </clipPath>
    <pattern
       y="0"
       x="0"
       height="6"
       width="6"
       patternUnits="userSpaceOnUse"
       id="EMFhbasepattern" />
  </defs>
  <sodipodi:namedview
     id="base"
     pagecolor="#ffffff"
     bordercolor="#666666"
     borderopacity="1.0"
     inkscape:pageopacity="0.0"
     inkscape:pageshadow="2"
     inkscape:zoom="0.35355339"
     inkscape:cx="527.41404"
     inkscape:cy="1166.7861"
     inkscape:document-units="mm"
     inkscape:current-layer="layer1"
     inkscape:document-rotation="0"
     showgrid="false"
     inkscape:window-width="1920"
     inkscape:window-height="1000"
     inkscape:window-x="-11"
     inkscape:window-y="35"
     inkscape:window-maximized="1" />
  <metadata
     id="metadata5">
    <rdf:RDF>
      <cc:Work
         rdf:about="">
        <dc:format>image/svg+xml</dc:format>
        <dc:type
           rdf:resource="http://purl.org/dc/dcmitype/StillImage" />
        <dc:title />
      </cc:Work>
    </rdf:RDF>
  </metadata>
  <g
     inkscape:label="Layer 1"
     inkscape:groupmode="layer"
     id="layer1">
    <path
       style="fill:#faedb2;fill-opacity:1;stroke:none;stroke-width:0.933921px;stroke-linecap:butt;stroke-linejoin:miter;stroke-opacity:1"
       d="m 150.51612,271.3328 1.30526,238.82418 132.26577,-1.0228 0.43508,-237.80138 z"
       id="path903" />
    <path
       style="fill:#a82b2b;fill-opacity:1;stroke:#000000;stroke-width:0.264583px;stroke-linecap:butt;stroke-linejoin:miter;stroke-opacity:1"
       d="m 147.41071,288.77379 c 0,0 -65.748296,30.4687 -64.679218,77.50815 1.069078,47.03943 0.534537,26.72694 0.534537,26.72694 l 34.105361,-0.80181 c 0,0 -1.21679,-14.42922 0.18342,-25.18262 1.4002,-10.75339 15.7263,-38.27094 33.06313,-40.03112 19.9905,-2.02961 -3.20723,-38.21954 -3.20723,-38.21954 z"
       id="path990"
       sodipodi:nodetypes="cscczsc" />
    <text
       id="text874"
       y="60.379772"
       x="26.895372"
       style="font-style:normal;font-weight:normal;font-size:27.5656px;line-height:1.25;font-family:sans-serif;fill:#000000;fill-opacity:1;stroke:none;stroke-width:0.861423"
       xml:space="preserve"><tspan
         id="tspan884"
         style="font-style:normal;font-variant:normal;font-weight:normal;font-stretch:normal;font-size:27.5656px;font-family:Cabin;-inkscape-font-specification:Cabin;stroke-width:0.861423"
         y="60.379772"
         x="26.895372"
         sodipodi:role="line" /></text>
    <g
       transform="translate(-4.5435818,-32.473247)"
       id="g1048" />
    <g
       transform="translate(-4.5435818,-32.473247)"
       id="g1037" />
    <path
       sodipodi:nodetypes="cscczsc"
       id="path994"
       d="m 287.66768,335.93893 c 0,0 70.04027,-18.58874 77.15575,-65.09921 7.11547,-46.51043 4.11467,-26.41371 4.11467,-26.41371 l -33.72646,-5.13271 c 0,0 -1.30727,14.4213 -4.55356,24.76819 -3.24623,10.34688 -22.13305,34.95868 -39.51215,33.6816 -20.03923,-1.47254 -3.47825,38.19584 -3.47825,38.19584 z"
       style="fill:#a82b2b;fill-opacity:1;stroke:#000000;stroke-width:0.264583px;stroke-linecap:butt;stroke-linejoin:miter;stroke-opacity:1" />
    <path
       style="fill:#a82b2b;fill-opacity:1;stroke:none;stroke-width:0.264583px;stroke-linecap:butt;stroke-linejoin:miter;stroke-opacity:1"
       d="m 147.41071,288.77379 c 0,0 23.43452,30.99406 34.01785,35.52978 10.58334,4.5357 20.78869,5.66966 32.88393,17.76488 12.09523,12.09521 10.58334,168.95533 10.58334,168.95533 l -73.07445,-0.8668 z"
       id="path879"
       sodipodi:nodetypes="cssccc" />
    <path
       sodipodi:nodetypes="cssccc"
       id="path883"
       d="m 288.49782,287.75099 c 0,0 -23.43452,30.99406 -34.01785,35.52978 -10.58334,4.5357 -57.40461,10.21324 -69.49985,22.30846 -12.09523,12.09521 39.58162,165.53476 39.58162,165.53476 l 63.63468,-0.0187 z"
       style="fill:#a82b2b;fill-opacity:1;stroke:none;stroke-width:0.264583px;stroke-linecap:butt;stroke-linejoin:miter;stroke-opacity:1" />
    <rect
       style="fill:#111111;fill-opacity:1;stroke:none;stroke-width:0.864923;stroke-linecap:round;stroke-miterlimit:4;stroke-dasharray:none;stroke-opacity:1;paint-order:stroke fill markers"
       id="rect1081"
       width="26.608343"
       height="176.88474"
       x="206.43636"
       y="334.08783" />
    <path
       style="fill:#362275;fill-opacity:1;stroke:none;stroke-width:0.24381px;stroke-linecap:butt;stroke-linejoin:miter;stroke-opacity:1"
       d="m 157.77644,276.79694 c 0,0 -19.57977,0.1719 -40.40185,23.08194 -20.822081,22.91003 38.53058,48.46952 38.53058,48.46952 0,0 60.75168,29.52672 52.34709,-19.01376 -0.23187,-1.33914 -50.47582,-52.5377 -50.47582,-52.5377 z"
       id="path1193"
       sodipodi:nodetypes="cscsc" />
    <rect
       style="fill:#f0e693;fill-opacity:1;stroke:none;stroke-width:6.46656;stroke-linecap:round;stroke-miterlimit:4;stroke-dasharray:none;stroke-opacity:1;paint-order:stroke fill markers"
       id="rect1103"
       width="9.0141649"
       height="176.13687"
       x="215.54758"
       y="334.98712" />
    <path
       id="path1918"
       d="m 174.24702,269.49701 c 0,0 21.9189,57.55587 41.57738,58.20834 22.06436,0.73232 4.49576,13.70737 4.49576,13.70737 0,0 -25.16573,1.66105 -44.75022,-25.9916 -19.58449,-27.65265 -26.78264,-37.04122 -24.94643,-45.16815 1.79272,-7.93442 14.1741,-9.44941 23.62351,-0.75596 z"
       style="fill:#debb41;fill-opacity:1;stroke:none;stroke-width:2.865;stroke-linecap:butt;stroke-linejoin:miter;stroke-miterlimit:4;stroke-dasharray:none;stroke-opacity:1"
       sodipodi:nodetypes="csczsc" />
    <path
       sodipodi:nodetypes="cscsc"
       id="path1204"
       d="m 284.11358,276.70909 c 0,0 17.99189,3.65428 38.81397,26.56432 20.82208,22.91003 -38.53058,48.46952 -38.53058,48.46952 0,0 -60.75168,29.52672 -52.34709,-19.01376 0.23187,-1.33914 52.0637,-56.02008 52.0637,-56.02008 z"
       style="fill:#362275;fill-opacity:1;stroke:none;stroke-width:0.24381px;stroke-linecap:butt;stroke-linejoin:miter;stroke-opacity:1" />
    <path
       style="fill:none;stroke:#ffffff;stroke-width:2.965;stroke-linecap:butt;stroke-linejoin:miter;stroke-miterlimit:4;stroke-dasharray:none;stroke-opacity:1"
       d="m 192.20089,287.63986 c 0,0 12.09523,19.08781 25.3244,21.16667 13.22917,2.07888 24.19048,-18.14285 24.19048,-18.14285"
       id="path885" />
    <path
       sodipodi:nodetypes="csczsc"
       style="fill:#debb41;fill-opacity:1;stroke:none;stroke-width:2.865;stroke-linecap:butt;stroke-linejoin:miter;stroke-miterlimit:4;stroke-dasharray:none;stroke-opacity:1"
       d="m 266.12603,269.36337 c 0,0 -21.90808,58.1943 -41.57738,58.20834 -29.34328,0.021 -4.22849,13.84101 -4.22849,13.84101 0,0 26.59935,-0.26798 44.48295,-26.12524 17.8836,-25.85726 26.78264,-37.04122 24.94643,-45.16815 -1.79272,-7.93442 -14.1741,-9.44941 -23.62351,-0.75596 z"
       id="path1215" />
    <g
       id="g986"
       transform="translate(-4.2763123,-34.210499)">
      <circle
         style="fill:#f8e89b;fill-opacity:1;stroke:#303030;stroke-width:4.26015;stroke-linecap:round;stroke-miterlimit:4;stroke-dasharray:none;stroke-opacity:1;paint-order:stroke fill markers"
         id="path883-1"
         cx="223.35309"
         cy="261.58655"
         r="66.343704" />
      <ellipse
         ry="15.978811"
         rx="13.952684"
         cy="240.85179"
         cx="198.77075"
         id="path900"
         style="fill:#000000;fill-opacity:1;stroke:#f8e798;stroke-width:5.54367;stroke-linecap:round;stroke-miterlimit:4;stroke-dasharray:none;stroke-opacity:1;paint-order:stroke fill markers" />
      <ellipse
         style="fill:#000000;fill-opacity:1;stroke:#f8e798;stroke-width:5.58847;stroke-linecap:round;stroke-miterlimit:4;stroke-dasharray:none;stroke-opacity:1;paint-order:stroke fill markers"
         id="path900-2"
         cx="248.58803"
         cy="240.76167"
         rx="13.930296"
         ry="16.264074" />
      <path
         sodipodi:nodetypes="cssc"
         id="path873"
         d="m 194.62257,274.20937 c 0,0 12.93103,16.49568 22.44951,25.08451 2.84373,2.56598 6.83925,3.30412 9.84485,0.61531 5.0722,-4.53761 23.96589,-23.31324 23.96589,-27.3127"
         style="fill:none;stroke:#000000;stroke-width:3.44568;stroke-linecap:butt;stroke-linejoin:miter;stroke-miterlimit:4;stroke-dasharray:none;stroke-opacity:1" />
    </g>
    <g
       id="g3435"
       transform="matrix(0.98094342,0,0,1,-2.4713897,-43.027134)">
      <rect
         y="183.58963"
         x="146.04729"
         height="48.392979"
         width="159.28059"
         id="rect876"
         style="fill:#ccc9c4;fill-opacity:1;stroke:none;stroke-width:1.03189;paint-order:stroke fill markers" />
      <path
         sodipodi:nodetypes="cccccccccc"
         id="path880"
         d="m 146.03525,184.72356 -8.24951,-45.40924 38.47298,43.94239 24.43089,-49.21986 25.54256,49.52792 26.50419,-48.93824 21.70908,48.82934 38.8097,-44.35937 -7.92726,45.62706 z"
         style="fill:#ccc9c4;fill-opacity:1;stroke:none;stroke-width:0.262431px;stroke-linecap:butt;stroke-linejoin:miter;stroke-opacity:1" />
    </g>
    <rect
       y="175.37625"
       x="140.78094"
       height="9.0528193"
       width="156.34714"
       id="rect895"
       style="fill:#f6e40f;fill-opacity:1;stroke:none;stroke-width:1.11411;stroke-opacity:1;paint-order:stroke fill markers" />
    <g
       transform="matrix(0.98094342,0,0,1.12905,-1.5745233,-60.078113)"
       id="g1101" />
    <g
       id="g949"
       transform="matrix(0.98094342,0,0,1,-2.4713897,-43.027134)"
       style="fill:#f6e40f;fill-opacity:1">
      <rect
         style="fill:#f6e40f;fill-opacity:1;stroke:none;stroke-width:1.12488;stroke-opacity:1;paint-order:stroke fill markers"
         id="rect893"
         width="159.38446"
         height="9.0528193"
         x="146.03526"
         y="222.92979" />
      <path
         style="fill:#f6e40f;fill-opacity:1;stroke:none;stroke-width:0.296717px;stroke-linecap:butt;stroke-linejoin:miter;stroke-opacity:1"
         d="M 153.17907,214.46856 149,208.73957 l 5.14347,-6.91669 4.70145,7.05643 -4.05853,5.93858 z"
         id="path897"
         sodipodi:nodetypes="cccccc"
         transform="matrix(1,0,0,1.12905,-0.17555719,-28.276298)" />
      <path
         sodipodi:nodetypes="cccccc"
         id="path918"
         d="m 165.20688,214.46856 -4.17908,-5.72899 5.14348,-6.91669 4.70145,7.05643 -4.05853,5.93858 z"
         style="fill:#f6e40f;fill-opacity:1;stroke:none;stroke-width:0.296717px;stroke-linecap:butt;stroke-linejoin:miter;stroke-opacity:1"
         transform="matrix(1,0,0,1.12905,-0.17555719,-28.276298)" />
      <path
         style="fill:#f6e40f;fill-opacity:1;stroke:none;stroke-width:0.296717px;stroke-linecap:butt;stroke-linejoin:miter;stroke-opacity:1"
         d="m 177.23469,214.46856 -4.17908,-5.72899 5.14348,-6.91669 4.70145,7.05643 -4.05853,5.93858 z"
         id="path920"
         sodipodi:nodetypes="cccccc"
         transform="matrix(1,0,0,1.12905,-0.17555719,-28.276298)" />
      <path
         sodipodi:nodetypes="cccccc"
         id="path922"
         d="m 189.26249,214.46856 -4.17907,-5.72899 5.14347,-6.91669 4.70146,7.05643 -4.05853,5.93858 z"
         style="fill:#f6e40f;fill-opacity:1;stroke:none;stroke-width:0.296717px;stroke-linecap:butt;stroke-linejoin:miter;stroke-opacity:1"
         transform="matrix(1,0,0,1.12905,-0.17555719,-28.276298)" />
      <path
         style="fill:#f6e40f;fill-opacity:1;stroke:none;stroke-width:0.296717px;stroke-linecap:butt;stroke-linejoin:miter;stroke-opacity:1"
         d="m 201.2903,214.46856 -4.17907,-5.72899 5.14347,-6.91669 4.70146,7.05643 -4.05853,5.93858 z"
         id="path924"
         sodipodi:nodetypes="cccccc"
         transform="matrix(1,0,0,1.12905,-0.17555719,-28.276298)" />
      <path
         sodipodi:nodetypes="cccccc"
         id="path926"
         d="m 213.31811,214.46856 -4.17907,-5.72899 5.14347,-6.91669 4.70145,7.05643 -4.05853,5.93858 z"
         style="fill:#f6e40f;fill-opacity:1;stroke:none;stroke-width:0.296717px;stroke-linecap:butt;stroke-linejoin:miter;stroke-opacity:1"
         transform="matrix(1,0,0,1.12905,-0.17555719,-28.276298)" />
      <path
         style="fill:#f6e40f;fill-opacity:1;stroke:none;stroke-width:0.296717px;stroke-linecap:butt;stroke-linejoin:miter;stroke-opacity:1"
         d="m 225.34592,214.46856 -4.17908,-5.72899 5.14348,-6.91669 4.70145,7.05643 -4.05853,5.93858 z"
         id="path928"
         sodipodi:nodetypes="cccccc"
         transform="matrix(1,0,0,1.12905,-0.17555719,-28.276298)" />
      <path
         sodipodi:nodetypes="cccccc"
         id="path930"
         d="m 249.40153,214.46856 -4.17907,-5.72899 5.14347,-6.91669 4.70146,7.05643 -4.05853,5.93858 z"
         style="fill:#f6e40f;fill-opacity:1;stroke:none;stroke-width:0.296717px;stroke-linecap:butt;stroke-linejoin:miter;stroke-opacity:1"
         transform="matrix(1,0,0,1.12905,-0.17555719,-28.276298)" />
      <path
         style="fill:#f6e40f;fill-opacity:1;stroke:none;stroke-width:0.296717px;stroke-linecap:butt;stroke-linejoin:miter;stroke-opacity:1"
         d="m 237.37373,214.46856 -4.17908,-5.72899 5.14348,-6.91669 4.70145,7.05643 -4.05853,5.93858 z"
         id="path932"
         sodipodi:nodetypes="cccccc"
         transform="matrix(1,0,0,1.12905,-0.17555719,-28.276298)" />
      <path
         style="fill:#f6e40f;fill-opacity:1;stroke:none;stroke-width:0.296717px;stroke-linecap:butt;stroke-linejoin:miter;stroke-opacity:1"
         d="m 261.42934,214.46856 -4.17907,-5.72899 5.14347,-6.91669 4.70146,7.05643 -4.05853,5.93858 z"
         id="path934"
         sodipodi:nodetypes="cccccc"
         transform="matrix(1,0,0,1.12905,-0.17555719,-28.276298)" />
      <path
         sodipodi:nodetypes="cccccc"
         id="path936"
         d="m 273.45715,214.46856 -4.17907,-5.72899 5.14347,-6.91669 4.70145,7.05643 -4.05853,5.93858 z"
         style="fill:#f6e40f;fill-opacity:1;stroke:none;stroke-width:0.296717px;stroke-linecap:butt;stroke-linejoin:miter;stroke-opacity:1"
         transform="matrix(1,0,0,1.12905,-0.17555719,-28.276298)" />
      <path
         style="fill:#f6e40f;fill-opacity:1;stroke:none;stroke-width:0.296717px;stroke-linecap:butt;stroke-linejoin:miter;stroke-opacity:1"
         d="m 285.48496,214.46856 -4.17908,-5.72899 5.14348,-6.91669 4.70145,7.05643 -4.05853,5.93858 z"
         id="path938"
         sodipodi:nodetypes="cccccc"
         transform="matrix(1,0,0,1.12905,-0.17555719,-28.276298)" />
      <path
         sodipodi:nodetypes="cccccc"
         id="path940"
         d="m 297.51277,214.46856 -4.17908,-5.72899 5.14348,-6.91669 4.70145,7.05643 -4.05853,5.93858 z"
         style="fill:#f6e40f;fill-opacity:1;stroke:none;stroke-width:0.296717px;stroke-linecap:butt;stroke-linejoin:miter;stroke-opacity:1"
         transform="matrix(1,0,0,1.12905,-0.17555719,-28.276298)" />
      <rect
         y="213.87695"
         x="146.03526"
         height="9.0528479"
         width="159.38446"
         id="rect882"
         style="fill:#f6e40f;fill-opacity:1;stroke:none;stroke-width:1.12488;stroke-opacity:1;paint-order:stroke fill markers" />
    </g>
    <path
       style="fill:#40a354;fill-opacity:1;stroke:none;stroke-width:0.332006px;stroke-linecap:butt;stroke-linejoin:miter;stroke-opacity:1"
       d="m 343.82061,200.98548 c 0,0 -13.46588,2.29498 -24.85197,-6.15669 -4.30135,-3.19281 -7.10378,-11.04039 -7.10378,-11.04039 0,0 26.53188,2.53235 31.17597,10.29175 3.50092,5.84939 0.77977,6.90533 0.77977,6.90533 z"
       id="path1073"
       sodipodi:nodetypes="cscsc" />
    <path
       sodipodi:nodetypes="cscsc"
       id="path1077"
       d="m 352.35835,205.54273 c 0,0 13.64877,-0.57363 23.02885,-11.56684 3.54354,-4.15294 4.65313,-12.69045 4.65313,-12.69045 0,0 -25.42559,8.26309 -28.35493,17.10729 -2.20826,6.66713 0.67295,7.15 0.67295,7.15 z"
       style="fill:#40a354;fill-opacity:1;stroke:none;stroke-width:0.337563px;stroke-linecap:butt;stroke-linejoin:miter;stroke-opacity:1" />
    <path
       style="fill:none;stroke:#40a354;stroke-width:7.9375;stroke-linecap:butt;stroke-linejoin:miter;stroke-miterlimit:4;stroke-dasharray:none;stroke-opacity:1"
       d="m 347.94688,202.33467 c 0,0 -1.09202,-15.41287 -0.36402,-25.22107"
       id="path1004" />
    <path
       id="path1079"
       d="m 376.13841,185.41507 c -0.003,0.001 -11.01211,11.07321 -22.98516,16.9468"
       style="fill:none;stroke:#246c38;stroke-width:1.10359;stroke-linecap:butt;stroke-linejoin:miter;stroke-miterlimit:4;stroke-dasharray:none;stroke-opacity:1"
       sodipodi:nodetypes="cc" />
    <path
       style="fill:none;stroke:#40a354;stroke-width:7.9375;stroke-linecap:butt;stroke-linejoin:miter;stroke-miterlimit:4;stroke-dasharray:none;stroke-opacity:1"
       d="m 352.39486,252.83696 c 1.6935,14.50028 7.84402,21.07015 19.14254,26.26973"
       id="path1002"
       sodipodi:nodetypes="cc" />
    <ellipse
       ry="24.588795"
       rx="24.054256"
       cy="162.98543"
       cx="384.41864"
       id="ellipse996"
       style="fill:#f8e89b;fill-opacity:1;stroke:#030303;stroke-width:3.96875;stroke-miterlimit:4;stroke-dasharray:none;stroke-opacity:1;paint-order:stroke fill markers"
       transform="rotate(10)" />
    <text
       xml:space="preserve"
       style="font-style:normal;font-weight:normal;font-size:7.71522px;line-height:1.25;font-family:sans-serif;fill:#000000;fill-opacity:1;stroke:none;stroke-width:0.192881;"
       x="15.590449"
       y="79.51857"
       id="text1076"><tspan
         sodipodi:role="line"
         id="tspan1074"
         x="15.590449"
         y="79.51857"
         style="font-style:normal;font-variant:normal;font-weight:normal;font-stretch:normal;font-size:54.0067px;font-family:TechnicLite;-inkscape-font-specification:TechnicLite;fill:#000000;fill-opacity:1;stroke-width:0.192881;">Q</tspan></text>
    <text
       id="text1082"
       y="-542.6106"
       x="-425.43085"
       style="font-style:normal;font-weight:normal;font-size:7.71522px;line-height:1.25;font-family:sans-serif;fill:#000000;fill-opacity:1;stroke:none;stroke-width:0.192881;"
       xml:space="preserve"
       transform="scale(-1)"><tspan
         style="font-style:normal;font-variant:normal;font-weight:normal;font-stretch:normal;font-size:54.0067px;font-family:TechnicLite;-inkscape-font-specification:TechnicLite;fill:#000000;fill-opacity:1;stroke-width:0.192881;"
         y="-542.6106"
         x="-425.43085"
         id="tspan1080"
         sodipodi:role="line">Q</tspan></text>
    <ellipse
       style="fill:#f8e89b;fill-opacity:1;stroke:#030303;stroke-width:3.96875;stroke-miterlimit:4;stroke-dasharray:none;stroke-opacity:1;paint-order:stroke fill markers"
       id="path992"
       cx="101.17309"
       cy="408.77777"
       rx="24.054256"
       ry="24.588795" />
    <path
       style="fill:#8bfbff;fill-opacity:1;stroke:#ffffff;stroke-width:1.93489;stroke-linecap:butt;stroke-linejoin:miter;stroke-miterlimit:4;stroke-dasharray:none;stroke-opacity:1"
       d="m 213.33541,315.15126 c -0.49021,-3.65197 1.40482,-5.83658 5.18704,-5.98989 4.57345,-0.18539 5.81616,2.14245 5.21861,6.0657 -0.59755,3.92325 -2.85178,7.01921 -4.76445,7.0514 -2.06487,0.0347 -5.15099,-3.47524 -5.6412,-7.12721 z"
       id="path887"
       sodipodi:nodetypes="zszsz" />
    <ellipse
       style="fill:#f0ea4c;fill-opacity:1;stroke:none;stroke-width:14.6004;stroke-linecap:round;stroke-miterlimit:4;stroke-dasharray:none;stroke-opacity:1;paint-order:stroke fill markers"
       id="path1006"
       cx="334.05487"
       cy="150.80832"
       rx="15.068695"
       ry="15.663266" />
    <ellipse
       ry="15.663266"
       rx="15.068695"
       cy="149.96622"
       cx="359.91043"
       id="ellipse1017"
       style="fill:#f0ea4c;fill-opacity:1;stroke:none;stroke-width:14.6004;stroke-linecap:round;stroke-miterlimit:4;stroke-dasharray:none;stroke-opacity:1;paint-order:stroke fill markers" />
    <ellipse
       style="fill:#f0ea4c;fill-opacity:1;stroke:none;stroke-width:14.6004;stroke-linecap:round;stroke-miterlimit:4;stroke-dasharray:none;stroke-opacity:1;paint-order:stroke fill markers"
       id="ellipse1019"
       cx="359.74573"
       cy="170.51372"
       rx="15.068695"
       ry="15.663266" />
    <ellipse
       ry="15.663266"
       rx="15.068695"
       cy="171.69267"
       cx="335.70169"
       id="ellipse1021"
       style="fill:#f0ea4c;fill-opacity:1;stroke:none;stroke-width:14.6004;stroke-linecap:round;stroke-miterlimit:4;stroke-dasharray:none;stroke-opacity:1;paint-order:stroke fill markers" />
    <ellipse
       style="fill:#e91313;fill-opacity:1;stroke:#191919;stroke-width:8.2;stroke-linecap:round;stroke-miterlimit:4;stroke-dasharray:none;stroke-opacity:1;paint-order:stroke fill markers"
       id="path1023"
       cx="347.24991"
       cy="161.36398"
       rx="6.8821898"
       ry="6.7485552" />
    <path
       style="fill:#191919;fill-opacity:1;stroke:#191919;stroke-width:0.264583px;stroke-linecap:butt;stroke-linejoin:miter;stroke-opacity:1"
       d="m 323.68934,162.24627 c 0.1063,1.70089 10.46767,1.54118 15.04985,0.30306 0.94513,-0.25538 -0.8285,-2.28743 -0.8285,-2.28743 0,0 -14.32765,0.28348 -14.22135,1.98437 z"
       id="path1027"
       sodipodi:nodetypes="zscz" />
    <path
       sodipodi:nodetypes="zscz"
       id="path1047"
       d="m 348.14541,180.41884 c 1.0294,-0.0413 1.57269,-6.33557 0.92347,-9.0262 -0.14381,-0.59602 -2.05075,0.20301 -2.05075,0.20301 0,0 0.0979,8.86449 1.12728,8.82319 z"
       style="fill:#191919;fill-opacity:1;stroke:#191919;stroke-width:0.20481px;stroke-linecap:butt;stroke-linejoin:miter;stroke-opacity:1" />
    <path
       sodipodi:nodetypes="zscz"
       id="path1060"
       d="m 371.17952,160.34458 c -0.1063,1.70089 -8.79402,1.86988 -13.44302,1.75095 -0.9787,-0.025 -0.77833,-3.73532 -0.77833,-3.73532 0,0 14.32765,0.28348 14.22135,1.98437 z"
       style="fill:#191919;fill-opacity:1;stroke:#191919;stroke-width:0.264583px;stroke-linecap:butt;stroke-linejoin:miter;stroke-opacity:1" />
    <path
       style="fill:#191919;fill-opacity:1;stroke:#191919;stroke-width:0.20481px;stroke-linecap:butt;stroke-linejoin:miter;stroke-opacity:1"
       d="m 346.53902,141.9732 c 1.0294,0.0413 1.57269,6.33557 0.92347,9.0262 -0.14381,0.59602 -2.05075,-0.20301 -2.05075,-0.20301 0,0 0.0979,-8.86449 1.12728,-8.82319 z"
       id="path1071"
       sodipodi:nodetypes="zscz" />
    <path
       style="fill:none;stroke:#246c38;stroke-width:1.08543;stroke-linecap:butt;stroke-linejoin:miter;stroke-miterlimit:4;stroke-dasharray:none;stroke-opacity:1"
       d="m 316.24727,187.78052 c 0,0 9.96334,6.70222 25.5669,9.40898"
       id="path1075" />
    <ellipse
       style="fill:#181818;fill-opacity:1;stroke:none;stroke-width:7.99999;stroke-linecap:round;stroke-miterlimit:4;stroke-dasharray:none;stroke-opacity:1;paint-order:stroke fill markers"
       id="path1105"
       cx="220.17113"
       cy="346.6514"
       rx="2.5513391"
       ry="2.5040925" />
    <ellipse
       ry="2.5040925"
       rx="2.5513391"
       cy="357.99069"
       cx="220.26561"
       id="path1105-4"
       style="fill:#181818;fill-opacity:1;stroke:none;stroke-width:7.99999;stroke-linecap:round;stroke-miterlimit:4;stroke-dasharray:none;stroke-opacity:1;paint-order:stroke fill markers" />
    <ellipse
       ry="2.5040925"
       rx="2.5513391"
       cy="370.36942"
       cx="220.17114"
       id="path1105-8"
       style="fill:#181818;fill-opacity:1;stroke:none;stroke-width:7.99999;stroke-linecap:round;stroke-miterlimit:4;stroke-dasharray:none;stroke-opacity:1;paint-order:stroke fill markers" />
    <ellipse
       ry="2.5040925"
       rx="2.5513391"
       cy="382.9371"
       cx="220.36011"
       id="path1105-6"
       style="fill:#181818;fill-opacity:1;stroke:none;stroke-width:7.99999;stroke-linecap:round;stroke-miterlimit:4;stroke-dasharray:none;stroke-opacity:1;paint-order:stroke fill markers" />
    <ellipse
       ry="2.5040925"
       rx="2.5513391"
       cy="395.03238"
       cx="220.36012"
       id="path1105-2"
       style="fill:#181818;fill-opacity:1;stroke:none;stroke-width:7.99999;stroke-linecap:round;stroke-miterlimit:4;stroke-dasharray:none;stroke-opacity:1;paint-order:stroke fill markers" />
    <ellipse
       ry="2.5040925"
       rx="2.5513391"
       cy="408.40326"
       cx="220.40736"
       id="path1105-0"
       style="fill:#181818;fill-opacity:1;stroke:none;stroke-width:7.99999;stroke-linecap:round;stroke-miterlimit:4;stroke-dasharray:none;stroke-opacity:1;paint-order:stroke fill markers" />
    <ellipse
       ry="2.5040925"
       rx="2.5513391"
       cy="422.19937"
       cx="220.26561"
       id="path1105-3"
       style="fill:#181818;fill-opacity:1;stroke:none;stroke-width:7.99999;stroke-linecap:round;stroke-miterlimit:4;stroke-dasharray:none;stroke-opacity:1;paint-order:stroke fill markers" />
    <ellipse
       ry="2.5040925"
       rx="2.5513391"
       cy="434.75851"
       cx="220.26991"
       id="path1105-80"
       style="fill:#181818;fill-opacity:1;stroke:none;stroke-width:7.99999;stroke-linecap:round;stroke-miterlimit:4;stroke-dasharray:none;stroke-opacity:1;paint-order:stroke fill markers" />
    <ellipse
       style="fill:#181818;fill-opacity:1;stroke:none;stroke-width:7.99999;stroke-linecap:round;stroke-miterlimit:4;stroke-dasharray:none;stroke-opacity:1;paint-order:stroke fill markers"
       id="path1105-4-6"
       cx="220.3644"
       cy="446.09781"
       rx="2.5513391"
       ry="2.5040925" />
    <ellipse
       style="fill:#181818;fill-opacity:1;stroke:none;stroke-width:7.99999;stroke-linecap:round;stroke-miterlimit:4;stroke-dasharray:none;stroke-opacity:1;paint-order:stroke fill markers"
       id="path1105-8-2"
       cx="220.26993"
       cy="458.47653"
       rx="2.5513391"
       ry="2.5040925" />
    <ellipse
       style="fill:#181818;fill-opacity:1;stroke:none;stroke-width:7.99999;stroke-linecap:round;stroke-miterlimit:4;stroke-dasharray:none;stroke-opacity:1;paint-order:stroke fill markers"
       id="path1105-6-5"
       cx="220.45889"
       cy="471.04422"
       rx="2.5513391"
       ry="2.5040925" />
    <ellipse
       style="fill:#181818;fill-opacity:1;stroke:none;stroke-width:7.99999;stroke-linecap:round;stroke-miterlimit:4;stroke-dasharray:none;stroke-opacity:1;paint-order:stroke fill markers"
       id="path1105-2-7"
       cx="220.45891"
       cy="483.1395"
       rx="2.5513391"
       ry="2.5040925" />
    <ellipse
       style="fill:#181818;fill-opacity:1;stroke:none;stroke-width:7.99999;stroke-linecap:round;stroke-miterlimit:4;stroke-dasharray:none;stroke-opacity:1;paint-order:stroke fill markers"
       id="path1105-0-5"
       cx="220.50615"
       cy="496.51038"
       rx="2.5513391"
       ry="2.5040925" />
    <g
       transform="translate(10.871644,104.0288)"
       id="layer1-5"
       inkscape:label="Layer 1">
      <path
         style="fill:#000000;fill-opacity:1;stroke:#000000;stroke-width:0.340509px;stroke-linecap:butt;stroke-linejoin:miter;stroke-opacity:1"
         d="m 19.914813,51.991053 c 0,0 7.558449,-6.04617 5.337438,-22.657801 l 2.714628,-0.08406 c -1.753305,16.69008 4.979407,22.741856 4.979407,22.741856 H 19.914813"
         id="path833-2"
         sodipodi:nodetypes="ccccc" />
      <ellipse
         ry="10.785432"
         rx="11.287971"
         style="fill:#000000;fill-opacity:1;stroke:#000000;stroke-width:1.09764;stroke-linecap:round;stroke-linejoin:round;paint-order:stroke fill markers"
         id="path835"
         cx="39.102745"
         cy="31.991859" />
      <ellipse
         style="fill:#000000;fill-opacity:1;stroke:#000000;stroke-width:1.02153;stroke-linecap:round;stroke-linejoin:round;paint-order:stroke fill markers"
         id="path837"
         cx="37.716682"
         cy="36.467644"
         rx="0.26391608"
         ry="0.33622202" />
      <ellipse
         ry="10.785432"
         rx="11.287971"
         cy="32.297565"
         cx="13.989426"
         id="path835-2"
         style="fill:#000000;fill-opacity:1;stroke:#000000;stroke-width:1.09764;stroke-linecap:round;stroke-linejoin:round;paint-order:stroke fill markers" />
      <ellipse
         ry="10.785432"
         rx="11.287971"
         cy="11.970385"
         cx="26.554958"
         id="path835-6"
         style="fill:#000000;fill-opacity:1;stroke:#000000;stroke-width:1.09764;stroke-linecap:round;stroke-linejoin:round;paint-order:stroke fill markers" />
      <ellipse
         style="fill:#000000;fill-opacity:1;stroke:#000000;stroke-width:0.747102;stroke-linecap:round;stroke-linejoin:round;paint-order:stroke fill markers"
         id="path869"
         cx="26.197987"
         cy="25.299631"
         rx="4.8842611"
         ry="4.6668134" />
    </g>
    <g
       inkscape:label="Layer 1"
       id="g968"
       transform="matrix(1,0,0,-1,380.23812,514.9674)">
      <path
         sodipodi:nodetypes="ccccc"
         id="path956"
         d="m 19.914813,51.991053 c 0,0 7.558449,-6.04617 5.337438,-22.657801 l 2.714628,-0.08406 c -1.753305,16.69008 4.979407,22.741856 4.979407,22.741856 H 19.914813"
         style="fill:#000000;fill-opacity:1;stroke:#000000;stroke-width:0.340509px;stroke-linecap:butt;stroke-linejoin:miter;stroke-opacity:1" />
      <ellipse
         cy="31.991859"
         cx="39.102745"
         id="ellipse958"
         style="fill:#000000;fill-opacity:1;stroke:#000000;stroke-width:1.09764;stroke-linecap:round;stroke-linejoin:round;paint-order:stroke fill markers"
         rx="11.287971"
         ry="10.785432" />
      <ellipse
         ry="0.33622202"
         rx="0.26391608"
         cy="36.467644"
         cx="37.716682"
         id="ellipse960"
         style="fill:#000000;fill-opacity:1;stroke:#000000;stroke-width:1.02153;stroke-linecap:round;stroke-linejoin:round;paint-order:stroke fill markers" />
      <ellipse
         style="fill:#000000;fill-opacity:1;stroke:#000000;stroke-width:1.09764;stroke-linecap:round;stroke-linejoin:round;paint-order:stroke fill markers"
         id="ellipse962"
         cx="13.989426"
         cy="32.297565"
         rx="11.287971"
         ry="10.785432" />
      <ellipse
         style="fill:#000000;fill-opacity:1;stroke:#000000;stroke-width:1.09764;stroke-linecap:round;stroke-linejoin:round;paint-order:stroke fill markers"
         id="ellipse964"
         cx="26.554958"
         cy="11.970385"
         rx="11.287971"
         ry="10.785432" />
      <ellipse
         ry="4.6668134"
         rx="4.8842611"
         cy="25.299631"
         cx="26.197987"
         id="ellipse966"
         style="fill:#000000;fill-opacity:1;stroke:#000000;stroke-width:0.747102;stroke-linecap:round;stroke-linejoin:round;paint-order:stroke fill markers" />
    </g>
    <g
       inkscape:label="Layer 1"
       id="g982"
       transform="matrix(2,0,0,2,61.189574,7.3151337)">
      <path
         sodipodi:nodetypes="ccccc"
         id="path970"
         d="m 19.914813,51.991053 c 0,0 7.558449,-6.04617 5.337438,-22.657801 l 2.714628,-0.08406 c -1.753305,16.69008 4.979407,22.741856 4.979407,22.741856 H 19.914813"
         style="fill:#000000;fill-opacity:1;stroke:#000000;stroke-width:0.340509px;stroke-linecap:butt;stroke-linejoin:miter;stroke-opacity:1" />
      <ellipse
         cy="31.991859"
         cx="39.102745"
         id="ellipse972"
         style="fill:#000000;fill-opacity:1;stroke:#000000;stroke-width:1.09764;stroke-linecap:round;stroke-linejoin:round;paint-order:stroke fill markers"
         rx="11.287971"
         ry="10.785432" />
      <ellipse
         ry="0.33622202"
         rx="0.26391608"
         cy="36.467644"
         cx="37.716682"
         id="ellipse974"
         style="fill:#000000;fill-opacity:1;stroke:#000000;stroke-width:1.02153;stroke-linecap:round;stroke-linejoin:round;paint-order:stroke fill markers" />
      <ellipse
         style="fill:#000000;fill-opacity:1;stroke:#000000;stroke-width:1.09764;stroke-linecap:round;stroke-linejoin:round;paint-order:stroke fill markers"
         id="ellipse976"
         cx="13.989426"
         cy="32.297565"
         rx="11.287971"
         ry="10.785432" />
      <ellipse
         style="fill:#000000;fill-opacity:1;stroke:#000000;stroke-width:1.09764;stroke-linecap:round;stroke-linejoin:round;paint-order:stroke fill markers"
         id="ellipse978"
         cx="26.554958"
         cy="11.970385"
         rx="11.287971"
         ry="10.785432" />
      <ellipse
         ry="4.6668134"
         rx="4.8842611"
         cy="25.299631"
         cx="26.197987"
         id="ellipse980"
         style="fill:#000000;fill-opacity:1;stroke:#000000;stroke-width:0.747102;stroke-linecap:round;stroke-linejoin:round;paint-order:stroke fill markers" />
    </g>
    <g
       transform="matrix(2,0,0,-2,273.7223,606.82409)"
       id="g996"
       inkscape:label="Layer 1">
      <path
         style="fill:#000000;fill-opacity:1;stroke:#000000;stroke-width:0.340509px;stroke-linecap:butt;stroke-linejoin:miter;stroke-opacity:1"
         d="m 19.914813,51.991053 c 0,0 7.558449,-6.04617 5.337438,-22.657801 l 2.714628,-0.08406 c -1.753305,16.69008 4.979407,22.741856 4.979407,22.741856 H 19.914813"
         id="path984"
         sodipodi:nodetypes="ccccc" />
      <ellipse
         ry="10.785432"
         rx="11.287971"
         style="fill:#000000;fill-opacity:1;stroke:#000000;stroke-width:1.09764;stroke-linecap:round;stroke-linejoin:round;paint-order:stroke fill markers"
         id="ellipse986"
         cx="39.102745"
         cy="31.991859" />
      <ellipse
         style="fill:#000000;fill-opacity:1;stroke:#000000;stroke-width:1.02153;stroke-linecap:round;stroke-linejoin:round;paint-order:stroke fill markers"
         id="ellipse988"
         cx="37.716682"
         cy="36.467644"
         rx="0.26391608"
         ry="0.33622202" />
      <ellipse
         ry="10.785432"
         rx="11.287971"
         cy="32.297565"
         cx="13.989426"
         id="ellipse990"
         style="fill:#000000;fill-opacity:1;stroke:#000000;stroke-width:1.09764;stroke-linecap:round;stroke-linejoin:round;paint-order:stroke fill markers" />
      <ellipse
         ry="10.785432"
         rx="11.287971"
         cy="11.970385"
         cx="26.554958"
         id="ellipse992"
         style="fill:#000000;fill-opacity:1;stroke:#000000;stroke-width:1.09764;stroke-linecap:round;stroke-linejoin:round;paint-order:stroke fill markers" />
      <ellipse
         style="fill:#000000;fill-opacity:1;stroke:#000000;stroke-width:0.747102;stroke-linecap:round;stroke-linejoin:round;paint-order:stroke fill markers"
         id="ellipse994"
         cx="26.197987"
         cy="25.299631"
         rx="4.8842611"
         ry="4.6668134" />
    </g>
  </g>
</svg>
