<?xml version="1.0" encoding="UTF-8" standalone="no"?>
<svg
   xmlns:dc="http://purl.org/dc/elements/1.1/"
   xmlns:cc="http://creativecommons.org/ns#"
   xmlns:rdf="http://www.w3.org/1999/02/22-rdf-syntax-ns#"
   xmlns:svg="http://www.w3.org/2000/svg"
   xmlns="http://www.w3.org/2000/svg"
   xmlns:sodipodi="http://sodipodi.sourceforge.net/DTD/sodipodi-0.dtd"
   xmlns:inkscape="http://www.inkscape.org/namespaces/inkscape"
   sodipodi:docname="knekt.svg"
   inkscape:version="1.0 (4035a4fb49, 2020-05-01)"
   id="svg8"
   version="1.1"
   viewBox="0 0 443 624"
   height="624mm"
   width="443mm">
  <defs
     id="defs2">
    <clipPath
       clipPathUnits="userSpaceOnUse"
       id="clipEmfPath1">
      <path
         d="M 0,0 H 264.09071 V 373.01291 H 0 Z"
         id="path833" />
    </clipPath>
    <pattern
       id="EMFhbasepattern"
       patternUnits="userSpaceOnUse"
       width="6"
       height="6"
       x="0"
       y="0" />
    <filter
       inkscape:collect="always"
       style="color-interpolation-filters:sRGB"
       id="filter1924"
       x="-3.9509687e-06"
       width="1.0000079"
       y="-6.1138082e-06"
       height="1.0000122">
      <feGaussianBlur
         inkscape:collect="always"
         stdDeviation="0.00023148819"
         id="feGaussianBlur1926" />
    </filter>
  </defs>
  <sodipodi:namedview
     inkscape:window-maximized="1"
     inkscape:window-y="35"
     inkscape:window-x="-11"
     inkscape:window-height="1000"
     inkscape:window-width="1920"
     showgrid="false"
     inkscape:document-rotation="0"
     inkscape:current-layer="layer1"
     inkscape:document-units="mm"
     inkscape:cy="995.87901"
     inkscape:cx="989.09089"
     inkscape:zoom="0.24748738"
     inkscape:pageshadow="2"
     inkscape:pageopacity="0.0"
     borderopacity="1.0"
     bordercolor="#666666"
     pagecolor="#ffffff"
     id="base" />
  <metadata
     id="metadata5">
    <rdf:RDF>
      <cc:Work
         rdf:about="">
        <dc:format>image/svg+xml</dc:format>
        <dc:type
           rdf:resource="http://purl.org/dc/dcmitype/StillImage" />
        <dc:title />
      </cc:Work>
    </rdf:RDF>
  </metadata>
  <g
     id="layer1"
     inkscape:groupmode="layer"
     inkscape:label="Layer 1">
    <path
       id="path903"
       d="m 150.51612,290.75946 1.30526,219.39752 132.26577,-0.9396 0.43508,-218.45792 z"
       style="fill:#d00000;fill-opacity:1;stroke:#000000;stroke-width:0.895132px;stroke-linecap:butt;stroke-linejoin:miter;stroke-opacity:1" />
    <path
       sodipodi:nodetypes="cscczsc"
       id="path990"
       d="m 130.42752,288.65108 c 0,0 -65.748296,30.4687 -64.679218,77.50815 1.069078,47.03943 0.534537,26.72694 0.534537,26.72694 l 34.105361,-0.80181 c 0,0 -1.216792,-14.42922 0.18342,-25.18262 1.4002,-10.75339 15.7263,-38.27094 33.06313,-40.03112 19.9905,-2.02961 -3.20723,-38.21954 -3.20723,-38.21954 z"
       style="fill:#f8e89b;fill-opacity:1;stroke:#000000;stroke-width:0.264583px;stroke-linecap:butt;stroke-linejoin:miter;stroke-opacity:1" />
    <text
       xml:space="preserve"
       style="font-style:normal;font-weight:normal;font-size:27.5656px;line-height:1.25;font-family:sans-serif;fill:#000000;fill-opacity:1;stroke:none;stroke-width:0.861423"
       x="26.895372"
       y="60.379772"
       id="text874"><tspan
         sodipodi:role="line"
         x="26.895372"
         y="60.379772"
         style="font-style:normal;font-variant:normal;font-weight:normal;font-stretch:normal;font-size:27.5656px;font-family:Cabin;-inkscape-font-specification:Cabin;stroke-width:0.861423"
         id="tspan884" /></text>
    <path
       style="fill:#f8e89b;fill-opacity:1;stroke:#000000;stroke-width:0.264583px;stroke-linecap:butt;stroke-linejoin:miter;stroke-opacity:1"
       d="m 297.11709,317.04012 c 0,0 70.04027,-18.58874 77.15575,-65.09921 7.11547,-46.51043 4.11467,-26.41371 4.11467,-26.41371 l -33.72646,-5.13271 c 0,0 -1.30727,14.4213 -4.55356,24.76819 -3.24623,10.34688 -22.13305,34.95868 -39.51215,33.6816 -20.03923,-1.47254 -3.47825,38.19584 -3.47825,38.19584 z"
       id="path994"
       sodipodi:nodetypes="cscczsc" />
    <path
       sodipodi:nodetypes="cscsc"
       id="path960"
       d="m 262.62267,335.13932 c 0,0 72.42146,-15.62448 112.52047,-65.74828 12.82893,-16.03618 -41.82768,-25.12334 -41.82768,-25.12334 0,0 -3.60814,19.77793 -65.08013,46.77216 -68.02042,29.86984 -5.61266,44.09946 -5.61266,44.09946 z"
       style="fill:#d00000;fill-opacity:1;stroke:none;stroke-width:0.264583px;stroke-linecap:butt;stroke-linejoin:miter;stroke-opacity:1;filter:url(#filter1924)" />
    <path
       style="fill:#d00000;fill-opacity:1;stroke:none;stroke-width:0.264583px;stroke-linecap:butt;stroke-linejoin:miter;stroke-opacity:1"
       d="m 170.38432,268.33861 c 0,0 -65.07155,20.7026 -105.170559,70.8264 -12.828935,16.03618 41.827679,25.12334 41.827679,25.12334 0,0 3.60814,-19.77793 65.08013,-46.77216 68.02042,-29.86984 -1.73725,-49.17758 -1.73725,-49.17758 z"
       id="path936"
       sodipodi:nodetypes="cscsc" />
    <path
       style="fill:#d00000;fill-opacity:1;stroke:none;stroke-width:0.264583px;stroke-linecap:butt;stroke-linejoin:miter;stroke-opacity:1"
       d="m 244.92857,266.66218 c -1.51191,0 42.26911,-4.70751 44.60119,29.86014 1.71546,25.42764 -52.3497,11.15029 -52.3497,11.15029 z"
       id="path1928"
       sodipodi:nodetypes="cscc" />
    <path
       style="fill:#f8e89b;fill-opacity:1;stroke:none;stroke-width:0.322976px;stroke-linecap:butt;stroke-linejoin:miter;stroke-opacity:1"
       d="m 182.99748,282.91494 c 0,0 16.0211,41.0327 35.04615,50.17468 19.02506,9.142 40.30308,-56.97802 40.30308,-56.97802 z"
       id="path1930" />
    <path
       sodipodi:nodetypes="ccscsc"
       id="path1934"
       d="m 221.18288,334.59014 5.35848,-20.8699 c 0,0 23.68048,-18.9924 46.53319,-57.26638 1.59483,-2.67105 2.23703,14.26462 2.23703,14.26462 0,0 1.78203,30.60997 -42.62237,58.50599 -8.82306,5.54288 -11.50633,5.36567 -11.50633,5.36567 z"
       style="fill:#eae240;fill-opacity:1;stroke:none;stroke-width:0.264583px;stroke-linecap:butt;stroke-linejoin:miter;stroke-opacity:1" />
    <path
       style="fill:#eae240;fill-opacity:1;stroke:none;stroke-width:0.264583px;stroke-linecap:butt;stroke-linejoin:miter;stroke-opacity:1"
       d="m 221.18288,334.59014 -5.35848,-20.8699 c 0,0 -28.21619,-15.7796 -47.66712,-55.75448 -1.36113,-2.79737 -1.1031,12.75272 -1.1031,12.75272 0,0 -1.6818,29.65782 42.7226,57.55384 8.82306,5.54288 11.4061,6.31782 11.4061,6.31782 z"
       id="path1932"
       sodipodi:nodetypes="ccscsc" />
    <path
       style="fill:none;stroke:#eae240;stroke-width:2.64583;stroke-linecap:butt;stroke-linejoin:miter;stroke-miterlimit:4;stroke-dasharray:none;stroke-opacity:1"
       d="m 167.05418,270.71848 c 0,0 -7.49428,86.08632 54.24498,86.62086 61.73925,0.53454 52.60205,-91.02729 52.60205,-91.02729"
       id="path1944"
       sodipodi:nodetypes="csc" />
    <g
       transform="translate(-4.2763123,-34.210499)"
       id="g986">
      <circle
         r="66.343704"
         cy="261.58655"
         cx="223.35309"
         id="path883-1"
         style="fill:#f8e89b;fill-opacity:1;stroke:#303030;stroke-width:4.26015;stroke-linecap:round;stroke-miterlimit:4;stroke-dasharray:none;stroke-opacity:1;paint-order:stroke fill markers" />
      <ellipse
         style="fill:#000000;fill-opacity:1;stroke:#f8e798;stroke-width:5.54367;stroke-linecap:round;stroke-miterlimit:4;stroke-dasharray:none;stroke-opacity:1;paint-order:stroke fill markers"
         id="path900"
         cx="198.77075"
         cy="240.85179"
         rx="13.952684"
         ry="15.978811" />
      <ellipse
         ry="16.264074"
         rx="13.930296"
         cy="240.76167"
         cx="248.58803"
         id="path900-2"
         style="fill:#000000;fill-opacity:1;stroke:#f8e798;stroke-width:5.58847;stroke-linecap:round;stroke-miterlimit:4;stroke-dasharray:none;stroke-opacity:1;paint-order:stroke fill markers" />
      <path
         style="fill:none;stroke:#000000;stroke-width:3.44568;stroke-linecap:butt;stroke-linejoin:miter;stroke-miterlimit:4;stroke-dasharray:none;stroke-opacity:1"
         d="m 194.62257,274.20937 c 0,0 12.93103,16.49568 22.44951,25.08451 2.84373,2.56598 6.83925,3.30412 9.84485,0.61531 5.0722,-4.53761 23.96589,-23.31324 23.96589,-27.3127"
         id="path873"
         sodipodi:nodetypes="cssc" />
    </g>
    <path
       sodipodi:nodetypes="csscscssssssc"
       id="path949"
       d="m 383.48148,261.63167 c 0,0 -3.2128,11.90625 -9.44941,5.85865 -6.23661,-6.04764 -5.10268,-9.26042 -15.875,-8.31549 -10.77232,0.94494 -11.52828,-8.12649 -11.52828,-8.12649 0,0 -0.37797,-1.88989 -2.64583,-3.21281 -2.26785,-1.32291 -9.26041,2.07889 -9.26041,2.07889 0,0 -9.07143,1.88986 -6.4256,-4.72472 2.64584,-6.61458 0.56697,-2.78756 2.36235,-5.14991 0.45742,-0.60186 2.54899,-2.7372 3.9712,-1.20132 2.31037,2.49504 2.04529,2.93626 7.25311,-1.69117 2.82548,-2.5106 13.08064,2.10778 13.65381,6.74012 0.5709,4.61401 13.03851,9.16581 16.14064,5.80328 5.17665,-5.61119 17.30533,5.4748 11.80342,11.94097 z"
       style="fill:#e5e5e5;fill-opacity:1;stroke:#000000;stroke-width:0.264583px;stroke-linecap:butt;stroke-linejoin:miter;stroke-opacity:1" />
    <path
       style="fill:none;stroke:#e0db68;stroke-width:5.29167;stroke-linecap:butt;stroke-linejoin:miter;stroke-miterlimit:4;stroke-dasharray:none;stroke-opacity:1"
       d="M 295.71812,448.08759 378.59139,146.09096"
       id="path1946"
       sodipodi:nodetypes="cc" />
    <ellipse
       transform="rotate(10)"
       style="fill:#f8e89b;fill-opacity:1;stroke:#030303;stroke-width:3.96875;stroke-miterlimit:4;stroke-dasharray:none;stroke-opacity:1;paint-order:stroke fill markers"
       id="ellipse996"
       cx="390.44275"
       cy="142.73286"
       rx="24.054256"
       ry="24.588795" />
    <text
       id="text1076"
       y="82.039688"
       x="16.89781"
       style="font-style:normal;font-weight:normal;font-size:6.98498px;line-height:1.25;font-family:sans-serif;fill:#000000;fill-opacity:1;stroke:none;stroke-width:0.174625"
       xml:space="preserve"><tspan
         style="font-style:normal;font-variant:normal;font-weight:normal;font-stretch:normal;font-size:48.895px;font-family:TechnicLite;-inkscape-font-specification:TechnicLite;fill:#000000;fill-opacity:1;stroke-width:0.174625"
         y="82.039688"
         x="16.89781"
         id="tspan1074"
         sodipodi:role="line">Kn</tspan></text>
    <ellipse
       ry="24.588795"
       rx="24.054256"
       cy="408.65506"
       cx="84.189896"
       id="path992"
       style="fill:#f8e89b;fill-opacity:1;stroke:#030303;stroke-width:3.96875;stroke-miterlimit:4;stroke-dasharray:none;stroke-opacity:1;paint-order:stroke fill markers" />
    <path
       style="fill:#8c5b3b;fill-opacity:1;stroke:#000000;stroke-width:0.264583px;stroke-linecap:butt;stroke-linejoin:miter;stroke-opacity:1"
       d="m 159.50595,209.02083 c 0,0 -21.54465,7.9375 -22.3006,-9.07143 -0.75595,-17.00893 9.82738,-21.54464 9.82738,-21.54464 0,0 10.58334,-9.44941 4.91369,-21.92262 -5.66964,-12.47322 22.3006,-15.11905 22.3006,-15.11905 0,0 36.18613,12.19808 36.94208,1.99272 0.75595,-10.20536 40.54303,-5.77248 40.54303,-5.77248 0,0 24.72008,9.99736 24.19047,31.75 -0.27839,11.43426 14.69521,9.92235 14.69521,9.92235 0,0 24.65691,8.907 11.04979,22.51414 -13.60715,13.60715 4.5357,25.70238 4.5357,25.70238 0,0 -15.01884,12.05208 -20.4107,0.37798 -5.39187,-11.6741 -17.95931,-12.48759 -17.32037,-17.90998 0.63894,-5.42239 1.67328,-0.17129 4.31911,-11.88855 2.64583,-11.71726 0,0 -10.85385,-9.06356 -9.20425,-7.68605 -11.22674,-16.26184 -22.93798,-18.51297 -11.71123,-2.25112 -21.9584,12.98898 -38.30528,6.84943 -16.34688,-6.13955 -30.98293,12.79747 -30.98293,12.79747 z"
       id="path934"
       sodipodi:nodetypes="cscscscscscsssszzcc" />
    <path
       style="fill:#e5e5e5;fill-opacity:1;stroke:#000000;stroke-width:0.264583px;stroke-linecap:butt;stroke-linejoin:miter;stroke-opacity:1"
       d="m 56.885413,347.5491 c 0,0 3.212799,-11.90625 9.449406,-5.85865 6.236608,6.04764 5.102677,9.26042 15.875,8.31549 10.77232,-0.94494 11.528274,8.12649 11.528274,8.12649 0,0 0.377976,1.88989 2.645833,3.21281 2.267855,1.32291 9.260414,-2.07889 9.260414,-2.07889 0,0 9.07143,-1.88986 6.4256,4.72472 -2.64584,6.61458 -0.56697,2.78756 -2.36235,5.14991 -0.45742,0.60186 -2.54899,2.7372 -3.9712,1.20132 -2.31037,-2.49504 -2.04529,-2.93626 -7.253111,1.69117 -2.825485,2.5106 -13.080647,-2.10778 -13.653814,-6.74012 -0.570899,-4.61401 -13.038507,-9.16581 -16.140639,-5.80328 -5.176651,5.61119 -17.305323,-5.4748 -11.803413,-11.94097 z"
       id="path938"
       sodipodi:nodetypes="csscscssssssc" />
    <ellipse
       style="fill:#eae240;fill-opacity:1;stroke:none;stroke-width:7.9375;stroke-linecap:round;stroke-opacity:1;paint-order:stroke fill markers"
       id="path1936"
       cx="221.49403"
       cy="364.18005"
       rx="4.9136906"
       ry="7.0870533" />
    <path
       style="fill:#eae240;fill-opacity:1;stroke:none;stroke-width:0.264583px;stroke-linecap:butt;stroke-linejoin:miter;stroke-opacity:1"
       d="m 220.8001,333.60532 c 0,0 0.28938,0.64375 0.89769,-0.006 0.60831,-0.64966 -0.0502,0.82976 -0.0679,0.82976 -0.0177,0 -0.44699,0.16097 -0.44699,0.16097 l -0.71056,-0.56846 z"
       id="path1938"
       sodipodi:nodetypes="cssccc" />
    <path
       style="fill:#3e924f;fill-opacity:1;stroke:none;stroke-width:0.264583px;stroke-linecap:butt;stroke-linejoin:miter;stroke-opacity:1"
       d="m 163.56872,168.19153 c 0,0 -29.86012,3.77976 -27.21429,-11.33928 2.64583,-15.11905 10.10252,-22.35758 21.92262,-28.72619 14.65615,-7.89666 29.83651,-19.57227 54.03159,-25.04275 19.29101,-4.36167 65.16871,16.11686 74.85828,22.01894 14.00872,8.53295 17.02872,12.51427 26.11836,32.43323 5.04925,11.0649 16.42525,22.70082 -4.04705,30.39466 -11.23885,4.22374 -37.5146,-12.8322 -45.83008,-23.41553 -8.31548,-10.58333 -49.78541,-17.50087 -64.3208,-11.63668 -9.56746,3.85992 -35.51863,15.3136 -35.51863,15.3136 z"
       id="path1940"
       sodipodi:nodetypes="cssssssssc" />
    <path
       style="fill:#e7e7e7;fill-opacity:1;stroke:#f4f4f4;stroke-width:2.64583333;stroke-linecap:butt;stroke-linejoin:miter;stroke-opacity:1;stroke-miterlimit:4;stroke-dasharray:none"
       d="m 399.14284,88.068448 c 0,0 17.5759,5.10268 27.78125,-3.023809 10.20535,-8.126487 -7.37055,5.858631 -4.15774,23.812501 3.21281,17.95387 -10.72407,-11.563996 -27.21427,-9.071429 -16.4902,2.492569 -62.84689,3.915029 -53.20849,36.231989 9.63837,32.31696 -48.37818,-76.322159 15.875,-114.526781 6.99255,-4.157738 -28.2231,40.529273 21.06152,47.870014 6.26103,0.932555 -20.8824,14.116468 1.40119,13.963821 22.28359,-0.152648 18.46154,4.743694 18.46154,4.743694 z"
       id="path1956"
       sodipodi:nodetypes="csszssszc" />
    <path
       style="fill:#da7bc9;fill-opacity:1;stroke:none;stroke-width:0.246726px;stroke-linecap:butt;stroke-linejoin:miter;stroke-opacity:1"
       d="m 288.88482,123.83884 c -2.05924,1.93636 -6.73442,8.27048 -7.20138,16.06981 -0.46706,7.79933 13.05102,24.2643 10.96626,34.76256 -1.72466,8.68488 8.69135,21.31669 8.69135,21.31669 0,0 17.03545,-2.89641 20.63871,-13.92494 3.66335,-11.21241 -2.7983,-24.24963 3.59559,-31.40831 6.39395,-7.15866 0.26238,-17.223 -10.68628,-23.20181 -9.91111,-5.41224 -10.0121,-7.01711 -26.00425,-3.614 z"
       id="path1942"
       sodipodi:nodetypes="ccscsssc" />
    <path
       style="fill:none;stroke:#c1c1c1;stroke-width:5.29167;stroke-linecap:butt;stroke-linejoin:miter;stroke-miterlimit:4;stroke-dasharray:none;stroke-opacity:1"
       d="M 383.79903,130.96207 402.64153,68.8219"
       id="path1950"
       sodipodi:nodetypes="cc" />
    <path
       style="fill:#d00e0e;fill-opacity:1;stroke:none;stroke-width:0.264583;stroke-linecap:butt;stroke-linejoin:miter;stroke-miterlimit:4;stroke-dasharray:none;stroke-opacity:1"
       d="m 374.54975,159.93163 c -7.34025,-1.57236 -10.87711,-13.70083 -10.51803,-15.78904 0.35909,-2.08822 17.59734,-18.29825 21.13052,-17.58837 3.53318,0.70987 8.74311,21.58096 8.041,24.16218 -0.70211,2.58122 -11.31324,10.78759 -18.65349,9.21523 z"
       id="path1948"
       sodipodi:nodetypes="zzzzz" />
    <path
       style="fill:#e7e7e7;fill-opacity:1;stroke:none;stroke-width:0.211666px;stroke-linecap:butt;stroke-linejoin:miter;stroke-opacity:1"
       d="M 401.17384,74.227262 397.75685,57.8721 416.29511,28.437634 413.7377,62.242866 Z"
       id="path1954"
       sodipodi:nodetypes="ccccc" />
    <path
       style="fill:#e0e0e0;fill-opacity:1;stroke:#bdbdbd;stroke-width:0.264583px;stroke-linecap:butt;stroke-linejoin:miter;stroke-opacity:1"
       d="m 394.63295,81.850475 c 0.80179,0 6.96674,4.422586 6.96674,4.422586 l -4.15775,14.930059 -8.50445,0.47247 z"
       id="path1958"
       sodipodi:nodetypes="ccccc" />
    <text
       transform="scale(-1)"
       xml:space="preserve"
       style="font-style:normal;font-weight:normal;font-size:6.98498px;line-height:1.25;font-family:sans-serif;fill:#000000;fill-opacity:1;stroke:none;stroke-width:0.174625"
       x="-428.2655"
       y="-552.26855"
       id="text875"><tspan
         sodipodi:role="line"
         id="tspan873"
         x="-428.2655"
         y="-552.26855"
         style="font-style:normal;font-variant:normal;font-weight:normal;font-stretch:normal;font-size:48.895px;font-family:TechnicLite;-inkscape-font-specification:TechnicLite;fill:#000000;fill-opacity:1;stroke-width:0.174625">Kn</tspan></text>
    <g
       transform="translate(22.36424,103.22699)"
       id="layer1-9"
       inkscape:label="Layer 1">
      <path
         style="fill:#000000;fill-opacity:1;stroke:#000000;stroke-width:0.340509px;stroke-linecap:butt;stroke-linejoin:miter;stroke-opacity:1"
         d="m 19.914813,51.991053 c 0,0 7.558449,-6.04617 5.337438,-22.657801 l 2.714628,-0.08406 c -1.753305,16.69008 4.979407,22.741856 4.979407,22.741856 H 19.914813"
         id="path833-6"
         sodipodi:nodetypes="ccccc" />
      <ellipse
         ry="10.785432"
         rx="11.287971"
         style="fill:#000000;fill-opacity:1;stroke:#000000;stroke-width:1.09764;stroke-linecap:round;stroke-linejoin:round;paint-order:stroke fill markers"
         id="path835"
         cx="39.102745"
         cy="31.991859" />
      <ellipse
         style="fill:#000000;fill-opacity:1;stroke:#000000;stroke-width:1.02153;stroke-linecap:round;stroke-linejoin:round;paint-order:stroke fill markers"
         id="path837"
         cx="37.716682"
         cy="36.467644"
         rx="0.26391608"
         ry="0.33622202" />
      <ellipse
         ry="10.785432"
         rx="11.287971"
         cy="32.297565"
         cx="13.989426"
         id="path835-2"
         style="fill:#000000;fill-opacity:1;stroke:#000000;stroke-width:1.09764;stroke-linecap:round;stroke-linejoin:round;paint-order:stroke fill markers" />
      <ellipse
         ry="10.785432"
         rx="11.287971"
         cy="11.970385"
         cx="26.554958"
         id="path835-6"
         style="fill:#000000;fill-opacity:1;stroke:#000000;stroke-width:1.09764;stroke-linecap:round;stroke-linejoin:round;paint-order:stroke fill markers" />
      <ellipse
         style="fill:#000000;fill-opacity:1;stroke:#000000;stroke-width:0.747102;stroke-linecap:round;stroke-linejoin:round;paint-order:stroke fill markers"
         id="path869"
         cx="26.197987"
         cy="25.299631"
         rx="4.8842611"
         ry="4.6668134" />
    </g>
    <g
       inkscape:label="Layer 1"
       id="g928"
       transform="matrix(1,0,0,-1,367.8967,524.30897)">
      <path
         sodipodi:nodetypes="ccccc"
         id="path916"
         d="m 19.914813,51.991053 c 0,0 7.558449,-6.04617 5.337438,-22.657801 l 2.714628,-0.08406 c -1.753305,16.69008 4.979407,22.741856 4.979407,22.741856 H 19.914813"
         style="fill:#000000;fill-opacity:1;stroke:#000000;stroke-width:0.340509px;stroke-linecap:butt;stroke-linejoin:miter;stroke-opacity:1" />
      <ellipse
         cy="31.991859"
         cx="39.102745"
         id="ellipse918"
         style="fill:#000000;fill-opacity:1;stroke:#000000;stroke-width:1.09764;stroke-linecap:round;stroke-linejoin:round;paint-order:stroke fill markers"
         rx="11.287971"
         ry="10.785432" />
      <ellipse
         ry="0.33622202"
         rx="0.26391608"
         cy="36.467644"
         cx="37.716682"
         id="ellipse920"
         style="fill:#000000;fill-opacity:1;stroke:#000000;stroke-width:1.02153;stroke-linecap:round;stroke-linejoin:round;paint-order:stroke fill markers" />
      <ellipse
         style="fill:#000000;fill-opacity:1;stroke:#000000;stroke-width:1.09764;stroke-linecap:round;stroke-linejoin:round;paint-order:stroke fill markers"
         id="ellipse922"
         cx="13.989426"
         cy="32.297565"
         rx="11.287971"
         ry="10.785432" />
      <ellipse
         style="fill:#000000;fill-opacity:1;stroke:#000000;stroke-width:1.09764;stroke-linecap:round;stroke-linejoin:round;paint-order:stroke fill markers"
         id="ellipse924"
         cx="26.554958"
         cy="11.970385"
         rx="11.287971"
         ry="10.785432" />
      <ellipse
         ry="4.6668134"
         rx="4.8842611"
         cy="25.299631"
         cx="26.197987"
         id="ellipse926"
         style="fill:#000000;fill-opacity:1;stroke:#000000;stroke-width:0.747102;stroke-linecap:round;stroke-linejoin:round;paint-order:stroke fill markers" />
    </g>
    <g
       inkscape:label="Layer 1"
       id="g942"
       transform="matrix(2,0,0,2,80.331643,26.467423)">
      <path
         sodipodi:nodetypes="ccccc"
         id="path930"
         d="m 19.914813,51.991053 c 0,0 7.558449,-6.04617 5.337438,-22.657801 l 2.714628,-0.08406 c -1.753305,16.69008 4.979407,22.741856 4.979407,22.741856 H 19.914813"
         style="fill:#000000;fill-opacity:1;stroke:#000000;stroke-width:0.340509px;stroke-linecap:butt;stroke-linejoin:miter;stroke-opacity:1" />
      <ellipse
         cy="31.991859"
         cx="39.102745"
         id="ellipse932"
         style="fill:#000000;fill-opacity:1;stroke:#000000;stroke-width:1.09764;stroke-linecap:round;stroke-linejoin:round;paint-order:stroke fill markers"
         rx="11.287971"
         ry="10.785432" />
      <ellipse
         ry="0.33622202"
         rx="0.26391608"
         cy="36.467644"
         cx="37.716682"
         id="ellipse934"
         style="fill:#000000;fill-opacity:1;stroke:#000000;stroke-width:1.02153;stroke-linecap:round;stroke-linejoin:round;paint-order:stroke fill markers" />
      <ellipse
         style="fill:#000000;fill-opacity:1;stroke:#000000;stroke-width:1.09764;stroke-linecap:round;stroke-linejoin:round;paint-order:stroke fill markers"
         id="ellipse936"
         cx="13.989426"
         cy="32.297565"
         rx="11.287971"
         ry="10.785432" />
      <ellipse
         style="fill:#000000;fill-opacity:1;stroke:#000000;stroke-width:1.09764;stroke-linecap:round;stroke-linejoin:round;paint-order:stroke fill markers"
         id="ellipse938"
         cx="26.554958"
         cy="11.970385"
         rx="11.287971"
         ry="10.785432" />
      <ellipse
         ry="4.6668134"
         rx="4.8842611"
         cy="25.299631"
         cx="26.197987"
         id="ellipse940"
         style="fill:#000000;fill-opacity:1;stroke:#000000;stroke-width:0.747102;stroke-linecap:round;stroke-linejoin:round;paint-order:stroke fill markers" />
    </g>
    <g
       transform="matrix(2,0,0,-2,254.27389,611.49859)"
       id="g956"
       inkscape:label="Layer 1">
      <path
         style="fill:#000000;fill-opacity:1;stroke:#000000;stroke-width:0.340509px;stroke-linecap:butt;stroke-linejoin:miter;stroke-opacity:1"
         d="m 19.914813,51.991053 c 0,0 7.558449,-6.04617 5.337438,-22.657801 l 2.714628,-0.08406 c -1.753305,16.69008 4.979407,22.741856 4.979407,22.741856 H 19.914813"
         id="path944"
         sodipodi:nodetypes="ccccc" />
      <ellipse
         ry="10.785432"
         rx="11.287971"
         style="fill:#000000;fill-opacity:1;stroke:#000000;stroke-width:1.09764;stroke-linecap:round;stroke-linejoin:round;paint-order:stroke fill markers"
         id="ellipse946"
         cx="39.102745"
         cy="31.991859" />
      <ellipse
         style="fill:#000000;fill-opacity:1;stroke:#000000;stroke-width:1.02153;stroke-linecap:round;stroke-linejoin:round;paint-order:stroke fill markers"
         id="ellipse948"
         cx="37.716682"
         cy="36.467644"
         rx="0.26391608"
         ry="0.33622202" />
      <ellipse
         ry="10.785432"
         rx="11.287971"
         cy="32.297565"
         cx="13.989426"
         id="ellipse950"
         style="fill:#000000;fill-opacity:1;stroke:#000000;stroke-width:1.09764;stroke-linecap:round;stroke-linejoin:round;paint-order:stroke fill markers" />
      <ellipse
         ry="10.785432"
         rx="11.287971"
         cy="11.970385"
         cx="26.554958"
         id="ellipse952"
         style="fill:#000000;fill-opacity:1;stroke:#000000;stroke-width:1.09764;stroke-linecap:round;stroke-linejoin:round;paint-order:stroke fill markers" />
      <ellipse
         style="fill:#000000;fill-opacity:1;stroke:#000000;stroke-width:0.747102;stroke-linecap:round;stroke-linejoin:round;paint-order:stroke fill markers"
         id="ellipse954"
         cx="26.197987"
         cy="25.299631"
         rx="4.8842611"
         ry="4.6668134" />
    </g>
  </g>
</svg>
